<svg width="134" height="40" viewBox="0 0 134 40" fill="none" xmlns="http://www.w3.org/2000/svg">
<g clip-path="url(#clip0_60_232)">
<path d="M18.8957 19.1297C20.9174 17.6673 23.7623 16.0765 26.0665 15.4516L22.0217 14.4528L19.552 11.0972C19.863 13.4655 19.4749 16.7028 18.8957 19.1297Z" fill="#FF8700"/>
<path d="M37.5974 20.8018C37.5976 18.8908 37.0445 17.0205 36.0048 15.417C34.9651 13.8135 33.4833 12.5453 31.7385 11.7657C29.9937 10.9861 28.0605 10.7284 26.1724 11.0237C24.2843 11.319 22.522 12.1547 21.0986 13.4299L20.7191 13.7751L21.4325 16.5773L22.4526 15.8168C22.4783 15.7983 25.0207 13.9421 27.5232 13.9421C27.6102 13.9421 27.6973 13.9421 27.7829 13.9421C30.8332 14.1061 32.815 15.3916 34.2032 18.1096C35.4616 20.5636 34.9394 23.8964 34.7553 24.8366L36.155 25.9338L36.2734 25.7269C37.1376 24.2292 37.5941 22.531 37.5974 20.8018Z" fill="#FF8700"/>
<path d="M29.2695 8.0311C28.3864 6.10929 28.5191 3.84933 29.1896 1.91325C29.4309 1.22055 29.7916 0.575443 30.2554 0.00713348C30.5671 0.670911 30.7602 1.38409 30.8261 2.11443C31.0087 4.15466 30.5907 6.37894 29.2681 8.0311H29.2695Z" fill="#FF8700"/>
<path d="M17.4262 13.0618C15.3246 12.8663 13.4313 11.6179 12.0887 10.0656C11.609 9.511 11.2304 8.87645 10.9702 8.1909C11.7011 8.25159 12.4158 8.43992 13.0818 8.74733C14.9365 9.60337 16.6629 11.09 17.4262 13.0561V13.0618Z" fill="#FF8700"/>
<path d="M39.552 15.7726C40.7719 14.0491 42.8021 13.029 44.811 12.6437C45.5313 12.5067 46.27 12.4965 46.9939 12.6138C46.5753 13.2158 46.0548 13.7402 45.4558 14.1632C43.7766 15.3445 41.6336 16.0936 39.552 15.7726Z" fill="#FF8700"/>
<path d="M23.0775 9.90584C21.4867 8.78157 20.5564 6.92681 20.1983 5.07205C20.0723 4.40913 20.0631 3.72928 20.1712 3.0632C20.7256 3.44822 21.2085 3.92721 21.5979 4.47853C22.6851 6.02939 23.37 7.97546 23.0789 9.91011L23.0775 9.90584Z" fill="#FF8700"/>
<path d="M39.4507 22.2443C41.2327 21.4296 43.2843 21.5523 45.0792 22.1701C45.7148 22.3926 46.3067 22.7243 46.8283 23.1502C46.2178 23.4377 45.5615 23.6158 44.8894 23.6767C43.0033 23.8436 40.9744 23.4641 39.4464 22.25L39.4507 22.2443Z" fill="#FF8700"/>
<path d="M34.8252 11.3497C35.0078 9.40648 36.1478 7.67442 37.576 6.43744C38.0869 5.99745 38.6706 5.64983 39.3009 5.41019C39.2453 6.08339 39.072 6.7416 38.7887 7.35483C37.9926 9.06691 36.6486 10.6363 34.8252 11.3497Z" fill="#FF8700"/>
<path d="M13.1531 31.0715L18.5818 35.2861H31.568L26.1492 31.0715H13.1531Z" fill="white"/>
<path d="M40.8831 31.0715H27.5432L32.9619 35.2861H46.2833L40.8831 31.0715Z" fill="#FF8700"/>
<path d="M26.3932 30.1769H39.7189L34.3102 25.9366H20.9402L26.3932 30.1769Z" fill="white"/>
<path d="M19.5463 25.9366H6.6329L12.0174 30.1769H24.9993L19.5463 25.9366Z" fill="#FF8700"/>
<path d="M12.9434 20.8018H0L5.45014 25.0164H18.3635L12.9434 20.8018Z" fill="white"/>
<path d="M33.1017 25.0164L27.7015 20.8018H14.3387L19.7575 25.0164H33.1017Z" fill="white"/>
<path d="M59.8117 35.1762V18.6888H70.535V21.1942H62.8078V25.6713H69.9843V28.1752H62.8078V32.6751H70.6092V35.1762H59.8117Z" fill="#FF8700"/>
<path d="M81.1072 23.1246C80.424 22.7475 79.653 22.5584 78.8729 22.5767C77.9493 22.5767 77.1751 22.7807 76.5502 23.1888C75.9352 23.5841 75.4585 24.161 75.1862 24.8395H75.0435V22.7379H72.2557V35.1034H75.1691V27.8585C75.1528 27.3291 75.2685 26.804 75.5058 26.3304C75.7141 25.927 76.0354 25.5929 76.4303 25.3688C76.8471 25.1446 77.3154 25.0334 77.7886 25.0464C78.54 25.0464 79.1292 25.2799 79.5563 25.7469C79.9834 26.2139 80.1969 26.8607 80.1969 27.6873V35.1063H83.1103V27.2307C83.116 26.2425 82.9429 25.4021 82.591 24.7097C82.2655 24.0451 81.7488 23.4931 81.1072 23.1246Z" fill="#FF8700"/>
<path d="M91.5937 35.346C90.3572 35.346 89.2876 35.0868 88.3849 34.5684C87.4904 34.0551 86.7688 33.2873 86.3119 32.3627C85.8277 31.4115 85.5861 30.2887 85.5871 28.9941C85.5871 27.7215 85.8301 26.6034 86.3162 25.6399C86.7701 24.7112 87.4774 23.9297 88.3564 23.3856C89.2315 22.8463 90.2592 22.5767 91.4396 22.5767C92.1764 22.5725 92.9083 22.6965 93.6025 22.9434C94.2784 23.1857 94.8937 23.5717 95.4059 24.0748C95.9547 24.625 96.3765 25.2888 96.6415 26.0194C96.9606 26.9193 97.1134 27.8698 97.0923 28.8244V29.7175H86.9625V27.7572H94.3059C94.3096 27.237 94.1851 26.724 93.9435 26.2634C93.716 25.8347 93.3749 25.4768 92.9576 25.229C92.5114 24.9685 92.0019 24.8362 91.4852 24.8466C90.9317 24.8346 90.3866 24.9832 89.9158 25.2746C89.4741 25.5531 89.1123 25.9415 88.8657 26.4018C88.615 26.8716 88.4837 27.3959 88.4834 27.9284V29.6405C88.4646 30.2813 88.5996 30.9173 88.8772 31.4952C89.1209 31.9869 89.5046 32.3954 89.98 32.6694C90.4842 32.9471 91.0525 33.0874 91.6279 33.0761C92.0193 33.081 92.4087 33.0193 92.7793 32.8934C93.1115 32.7803 93.4159 32.5979 93.6724 32.3584C93.9296 32.1153 94.1252 31.8146 94.2431 31.481L96.9639 31.7877C96.8027 32.4868 96.4664 33.1333 95.9866 33.6667C95.4794 34.2192 94.8487 34.6441 94.1461 34.9065C93.3302 35.2111 92.4645 35.3601 91.5937 35.346Z" fill="#FF8700"/>
<path d="M99.5563 35.1034V22.7379H102.381V24.7995H102.511C102.702 24.1331 103.112 23.5502 103.674 23.1445C104.225 22.7548 104.886 22.5505 105.561 22.561C105.723 22.561 105.904 22.561 106.105 22.581C106.274 22.5899 106.442 22.6099 106.609 22.6409V25.3217C106.418 25.2652 106.223 25.2261 106.025 25.2047C105.77 25.1712 105.513 25.1541 105.256 25.1534C104.759 25.1455 104.268 25.2633 103.829 25.4958C103.417 25.7144 103.071 26.0415 102.831 26.4417C102.584 26.8637 102.459 27.3455 102.468 27.8342V35.1106L99.5563 35.1034Z" fill="#FF8700"/>
<path d="M113.411 39.9986C112.494 40.0183 111.581 39.8733 110.715 39.5706C110.034 39.3337 109.415 38.947 108.903 38.4392C108.466 37.999 108.14 37.461 107.953 36.8697L110.578 36.2334C110.712 36.4959 110.886 36.7364 111.093 36.9468C111.351 37.2083 111.663 37.4116 112.006 37.5432C112.469 37.7192 112.962 37.804 113.457 37.7928C114.283 37.7928 114.967 37.5931 115.51 37.1936C116.053 36.7941 116.324 36.1378 116.323 35.2247V32.882H116.181C116.005 33.219 115.784 33.5305 115.524 33.808C115.202 34.1489 114.814 34.4203 114.383 34.6055C113.823 34.8368 113.221 34.9462 112.615 34.9265C111.71 34.9384 110.819 34.7063 110.034 34.2545C109.239 33.7782 108.601 33.0787 108.199 32.2428C107.746 31.3478 107.519 30.2269 107.519 28.88C107.519 27.5332 107.746 26.3861 108.199 25.4387C108.596 24.5646 109.234 23.8221 110.039 23.2986C110.812 22.8122 111.71 22.5591 112.624 22.5696C113.347 22.5696 113.943 22.6918 114.414 22.9362C114.845 23.149 115.227 23.4476 115.537 23.8137C115.786 24.1081 116 24.4308 116.173 24.7753H116.335V22.7379H119.21V35.3046C119.21 36.3633 118.957 37.2383 118.452 37.9298C117.928 38.6373 117.209 39.1772 116.383 39.4835C115.434 39.84 114.425 40.0147 113.411 39.9986ZM113.436 32.6409C113.996 32.6573 114.547 32.4998 115.014 32.19C115.466 31.8665 115.811 31.4148 116.004 30.8931C116.244 30.2444 116.359 29.5559 116.342 28.8643C116.356 28.1682 116.242 27.4754 116.008 26.8198C115.818 26.2803 115.477 25.8065 115.026 25.4544C114.55 25.134 113.988 24.9646 113.414 24.9684C112.84 24.9723 112.281 25.1491 111.809 25.4758C111.357 25.8365 111.017 26.3178 110.827 26.864C110.598 27.5045 110.486 28.1812 110.496 28.8615C110.483 29.5381 110.596 30.2113 110.83 30.8461C111.024 31.3742 111.369 31.8337 111.822 32.1672C112.295 32.4934 112.861 32.6594 113.436 32.6409Z" fill="#FF8700"/>
<path d="M124.022 39.7418C123.654 39.744 123.286 39.713 122.923 39.649C122.65 39.6046 122.382 39.5329 122.123 39.435L122.799 37.1651C123.166 37.2804 123.549 37.34 123.934 37.342C124.254 37.3407 124.564 37.2316 124.815 37.0324C125.071 36.8312 125.286 36.4974 125.464 36.0337L125.713 35.366L121.228 22.7422H124.32L127.174 32.0816H127.302L130.156 22.7422H133.256L128.305 36.6029C128.099 37.2138 127.789 37.7844 127.388 38.2893C127.013 38.7538 126.535 39.1233 125.991 39.368C125.369 39.6315 124.697 39.759 124.022 39.7418Z" fill="#FF8700"/>
<path d="M52.1601 17.2849V0.79184H58.3421C59.6091 0.79184 60.6734 1.01203 61.5352 1.45242C62.3601 1.85815 63.0423 2.50498 63.4912 3.30718C63.9484 4.15528 64.1775 5.10755 64.1561 6.07077C64.1561 7.12941 63.9321 8.04585 63.4841 8.82009C63.0237 9.6066 62.3337 10.2334 61.5067 10.6163C60.6382 11.0368 59.5701 11.2474 58.3022 11.2484H53.8993V8.7673H57.8942C58.5152 8.78823 59.1341 8.6829 59.7132 8.4577C60.1545 8.27849 60.5242 7.95848 60.7647 7.54744C61.0062 7.09315 61.1242 6.5835 61.1072 6.06934C61.122 5.5476 61.0027 5.03077 60.7605 4.56841C60.5222 4.14503 60.1519 3.8113 59.7061 3.61821C59.2305 3.40134 58.6213 3.29291 57.8785 3.29291H55.1463V17.2849H52.1601ZM60.6777 9.8131L64.7596 17.2849H61.4268L57.4176 9.8131H60.6777Z" fill="white"/>
<path d="M70.3381 17.5346C69.6113 17.5442 68.8909 17.3982 68.2251 17.1066C67.6204 16.8416 67.1058 16.4064 66.7442 15.8539C66.3818 15.3022 66.2006 14.6207 66.2006 13.8094C66.2006 13.1112 66.3295 12.5344 66.5872 12.0788C66.8383 11.6287 67.2015 11.2512 67.6416 10.983C68.1103 10.6999 68.6192 10.4897 69.1511 10.3595C69.7241 10.2149 70.3068 10.1114 70.8946 10.0499C71.6193 9.97432 72.2057 9.90727 72.658 9.84449C73.0025 9.81707 73.338 9.71999 73.6439 9.55914C73.7459 9.49353 73.8285 9.40172 73.883 9.2933C73.9374 9.18488 73.9618 9.06383 73.9535 8.94279V8.89428C73.9535 8.28839 73.7737 7.81852 73.4142 7.48466C73.0546 7.1508 72.5367 6.98483 71.8605 6.98673C71.1471 6.98673 70.5821 7.14225 70.1655 7.45328C69.7789 7.72636 69.4852 8.11121 69.3237 8.55614L66.6029 8.1695C66.7932 7.46107 67.1587 6.81193 67.6658 6.28192C68.173 5.76591 68.7934 5.37512 69.4778 5.14053C70.2388 4.87753 71.0396 4.74817 71.8448 4.75817C72.4439 4.75886 73.0409 4.82876 73.6239 4.96647C74.1994 5.0998 74.747 5.33304 75.2418 5.65559C75.7378 5.98318 76.1435 6.43011 76.4217 6.95535C76.7185 7.50321 76.8674 8.18757 76.8683 9.00842V17.2835H74.0662V15.5857H73.9692C73.7785 15.9474 73.5265 16.2732 73.2244 16.5487C72.8754 16.8626 72.4682 17.1049 72.026 17.2621C71.4841 17.453 70.9125 17.5453 70.3381 17.5346ZM71.0957 15.3945C71.6242 15.4078 72.1474 15.2871 72.6166 15.0435C73.0276 14.8302 73.3728 14.5091 73.6153 14.1147C73.8475 13.7341 73.969 13.2964 73.9663 12.8506V11.3911C73.8264 11.4897 73.6691 11.5609 73.5026 11.6008C73.2633 11.6705 73.0204 11.7272 72.775 11.7706C72.5053 11.8177 72.24 11.8619 71.9775 11.899L71.2926 11.996C70.8937 12.0446 70.5019 12.1404 70.1255 12.2814C69.8109 12.3947 69.5308 12.5874 69.3123 12.8406C69.0746 13.1653 68.9715 13.5692 69.0247 13.9681C69.0779 14.3669 69.2832 14.7297 69.5977 14.9807C70.0422 15.2702 70.5657 15.4143 71.0957 15.3931V15.3945Z" fill="white"/>
<path d="M84.3958 17.5018C83.47 17.5163 82.5608 17.2556 81.7834 16.7527C80.9826 16.216 80.3511 15.4623 79.9629 14.5798C79.5178 13.6287 79.2952 12.4749 79.2952 11.1186C79.2952 9.74319 79.5221 8.58229 79.9758 7.63589C80.3697 6.75754 81.0081 6.01114 81.8148 5.48581C82.589 5.00042 83.4864 4.74783 84.4001 4.75817C85.1239 4.75817 85.7193 4.87991 86.1863 5.12341C86.6132 5.33642 86.9915 5.63512 87.2978 6.00086C87.543 6.29875 87.7562 6.62153 87.9341 6.96391H88.0611V0.79184H90.9845V17.2849H88.1153V15.336H87.9384C87.7592 15.6786 87.5404 15.999 87.2864 16.2905C86.9713 16.6479 86.5881 16.9389 86.1592 17.1465C85.6072 17.4011 85.0033 17.5228 84.3958 17.5018ZM85.209 15.1106C85.7767 15.1265 86.333 14.9495 86.787 14.6084C87.2425 14.2431 87.5852 13.7564 87.7757 13.2045C88.0135 12.5298 88.128 11.818 88.1139 11.1029C88.1276 10.3929 88.0131 9.68625 87.7757 9.01698C87.5871 8.47315 87.2458 7.99515 86.7927 7.64018C86.3182 7.31677 85.7566 7.14511 85.1823 7.14791C84.6081 7.15071 84.0482 7.32784 83.5768 7.65587C83.1232 8.02044 82.7823 8.50628 82.5938 9.05693C82.3639 9.71357 82.2523 10.4058 82.2642 11.1014C82.2527 11.8044 82.3657 12.5038 82.5981 13.1674C82.7884 13.7261 83.1314 14.2204 83.5883 14.5941C84.0519 14.9486 84.6243 15.1312 85.2076 15.1106H85.209Z" fill="white"/>
<path d="M95.5628 3.16307C95.1194 3.1703 94.6909 3.00271 94.3701 2.69653C94.2134 2.55564 94.0881 2.38338 94.0023 2.19092C93.9166 1.99846 93.8723 1.79011 93.8723 1.5794C93.8723 1.36869 93.9166 1.16034 94.0023 0.96788C94.0881 0.775418 94.2134 0.603147 94.3701 0.462261C94.6961 0.163588 95.1221 -0.00209045 95.5643 -0.00209045C96.0064 -0.00209045 96.4325 0.163588 96.7584 0.462261C96.9143 0.603625 97.0389 0.776048 97.1242 0.968446C97.2094 1.16084 97.2535 1.36896 97.2535 1.5794C97.2535 1.78984 97.2094 1.99794 97.1242 2.19034C97.0389 2.38274 96.9143 2.55516 96.7584 2.69653C96.4366 3.00301 96.0072 3.17059 95.5628 3.16307ZM94.0976 17.2878V4.91796H97.011V17.2849L94.0976 17.2878Z" fill="white"/>
<path d="M103.565 17.5346C102.838 17.5443 102.117 17.3984 101.451 17.1066C100.846 16.8416 100.332 16.4064 99.97 15.8539C99.6076 15.3022 99.4265 14.6207 99.4265 13.8094C99.4265 13.1112 99.5553 12.5344 99.8131 12.0788C100.064 11.6289 100.428 11.2515 100.867 10.983C101.336 10.6999 101.845 10.4897 102.377 10.3595C102.95 10.215 103.533 10.1115 104.12 10.0499C104.845 9.9748 105.433 9.90631 105.884 9.84449C106.228 9.81707 106.564 9.71999 106.87 9.55914C106.972 9.49353 107.054 9.40172 107.109 9.2933C107.163 9.18488 107.188 9.06383 107.179 8.94279V8.89428C107.179 8.28839 107 7.81852 106.64 7.48466C106.28 7.1508 105.763 6.98483 105.086 6.98673C104.373 6.98673 103.808 7.14225 103.391 7.45328C103.005 7.72604 102.711 8.11105 102.551 8.55614L99.8288 8.1695C100.02 7.46131 100.385 6.8123 100.892 6.28192C101.399 5.76591 102.019 5.37512 102.704 5.14053C103.465 4.87753 104.265 4.74817 105.071 4.75817C105.67 4.75886 106.267 4.82876 106.85 4.96647C107.424 5.10027 107.97 5.3335 108.463 5.65559C108.959 5.98318 109.365 6.43011 109.643 6.95535C109.941 7.50321 110.09 8.18757 110.09 9.00842V17.2835H107.292V15.5857H107.196C106.784 16.3709 106.089 16.9709 105.252 17.2649C104.71 17.4548 104.139 17.5461 103.565 17.5346ZM104.322 15.3945C104.851 15.4077 105.374 15.2869 105.844 15.0435C106.255 14.8299 106.6 14.5089 106.843 14.1147C107.075 13.7341 107.196 13.2964 107.194 12.8506V11.3911C107.054 11.4897 106.896 11.5609 106.73 11.6008C106.491 11.6705 106.248 11.7272 106.002 11.7706C105.734 11.8177 105.467 11.8619 105.205 11.899L104.52 11.996C104.121 12.0446 103.729 12.1404 103.353 12.2814C103.038 12.3947 102.758 12.5874 102.54 12.8406C102.334 13.1025 102.228 13.4295 102.243 13.7623C102.243 14.2988 102.439 14.704 102.831 14.9779C103.274 15.2683 103.796 15.4134 104.326 15.3931L104.322 15.3945Z" fill="white"/>
<path d="M133.032 4.91796V7.17221H125.922V4.91796H133.032ZM127.677 1.95605H130.592V13.5654C130.574 13.8752 130.636 14.1844 130.773 14.4628C130.877 14.6582 131.047 14.81 131.253 14.8909C131.464 14.9685 131.687 15.0067 131.912 15.0036C132.081 15.005 132.249 14.9916 132.415 14.9636C132.568 14.9365 132.685 14.9123 132.765 14.8909L133.257 17.1736C133.039 17.2442 132.817 17.3037 132.592 17.352C132.247 17.4225 131.895 17.4602 131.542 17.4647C130.868 17.4947 130.195 17.3804 129.569 17.1294C129.001 16.8988 128.517 16.5006 128.181 15.988C127.839 15.4734 127.672 14.829 127.677 14.0548V1.95605Z" fill="white"/>
<path d="M123.366 6.89115C123.041 6.22679 122.525 5.67441 121.885 5.30461C121.201 4.92804 120.43 4.73947 119.65 4.75817C118.728 4.75817 117.954 4.96172 117.328 5.36882C116.713 5.76448 116.236 6.3413 115.964 7.01956H115.821V4.91797H113.029V17.2849H115.942V10.0385C115.927 9.51163 116.042 8.98905 116.278 8.51763C116.486 8.11374 116.807 7.77914 117.202 7.55458C117.617 7.32664 118.085 7.21153 118.559 7.22072C119.31 7.22072 119.9 7.45423 120.327 7.92125C120.754 8.38826 120.967 9.03506 120.967 9.86161V17.2806H123.881V9.41076C123.889 8.4206 123.718 7.58073 123.366 6.89115Z" fill="white"/>
<path d="M64.5299 18.6902H61.5423L61.5437 17.2849H64.5313L64.5299 18.6902Z" fill="white"/>
</g>
<defs>
<clipPath id="clip0_60_232">
<rect width="133.256" height="40" fill="white"/>
</clipPath>
</defs>
</svg>
