<svg width="717" height="516" viewBox="0 0 717 516" fill="none" xmlns="http://www.w3.org/2000/svg">
<g opacity="0.25">
<path d="M158.162 380.151C198.345 351.118 254.89 319.535 300.687 307.129L220.294 287.301L171.207 220.681C177.389 267.7 169.676 331.97 158.162 380.151Z" fill="#FFDDB7"/>
<path d="M529.873 413.348C529.877 375.408 518.883 338.278 498.219 306.443C477.554 274.609 448.103 249.432 413.423 233.954C378.744 218.476 340.319 213.36 302.791 219.223C265.264 225.086 230.238 241.677 201.946 266.993L194.403 273.847L208.582 329.478L228.858 314.38C229.368 314.012 279.901 277.161 329.64 277.161C331.37 277.161 333.1 277.161 334.801 277.161C395.43 280.419 434.819 305.939 462.41 359.899C487.422 408.618 477.043 474.785 473.385 493.452L501.204 515.233L503.557 511.126C520.735 481.392 529.808 447.678 529.873 413.348Z" fill="#FFDDB7"/>
<path d="M364.35 159.81C346.797 121.656 349.434 76.7894 362.762 38.3523C367.558 24.6001 374.727 11.7927 383.945 0.51001C390.14 13.688 393.978 27.8468 395.288 42.3462C398.918 82.8511 390.609 127.01 364.322 159.81H364.35Z" fill="#FFDDB7"/>
<path d="M128.954 259.684C87.1833 255.804 49.5528 231.019 22.8683 200.202C13.3339 189.191 5.80889 176.593 0.635986 162.983C15.1644 164.188 29.369 167.926 42.6052 174.029C79.47 191.024 113.783 220.539 128.954 259.571V259.684Z" fill="#FFDDB7"/>
<path d="M568.723 313.502C592.969 279.285 633.321 259.033 673.249 251.385C687.566 248.664 702.249 248.463 716.636 250.79C708.316 262.743 697.971 273.153 686.067 281.551C652.69 305.005 610.097 319.875 568.723 313.502Z" fill="#FFDDB7"/>
<path d="M241.278 197.03C209.66 174.709 191.17 137.887 184.053 101.064C181.548 87.9032 181.365 74.4061 183.514 61.1824C194.534 68.8262 204.131 78.3356 211.871 89.281C233.48 120.07 247.091 158.706 241.307 197.114L241.278 197.03Z" fill="#FFDDB7"/>
<path d="M566.71 441.985C602.128 425.811 642.906 428.247 678.58 440.512C691.214 444.929 702.979 451.514 713.346 459.971C701.211 465.677 688.167 469.215 674.809 470.423C637.32 473.737 596.995 466.203 566.625 442.098L566.71 441.985Z" fill="#FFDDB7"/>
<path d="M474.774 225.694C478.404 187.116 501.062 152.729 529.448 128.171C539.603 119.436 551.205 112.535 563.732 107.777C562.627 121.142 559.182 134.21 553.552 146.384C537.728 180.374 511.015 211.532 474.774 225.694Z" fill="#FFDDB7"/>
</g>
</svg>
