<svg width="60" height="60" viewBox="0 0 60 60" fill="none" xmlns="http://www.w3.org/2000/svg">
<g clip-path="url(#clip0_2002_377)">
<path d="M60 30C60 39.5064 55.5783 47.9801 48.679 53.4763C43.3696 57.7009 36.785 60.0009 30 60.0009C23.215 60.0009 16.6304 57.7009 11.321 53.4763C4.42168 47.9801 0 39.5064 0 30C0 13.4316 13.4316 0 30 0C46.5684 0 60 13.4316 60 30Z" fill="#F6F7F8"/>
<path d="M30 35.9068C36.9647 35.9068 42.6106 30.2608 42.6106 23.2962C42.6106 16.3315 36.9647 10.6855 30 10.6855C23.0354 10.6855 17.3894 16.3315 17.3894 23.2962C17.3894 30.2608 23.0354 35.9068 30 35.9068Z" fill="#D7D7D7"/>
<path d="M48.679 53.4765C43.3696 57.701 36.785 60.001 30 60.001C23.215 60.001 16.6304 57.701 11.321 53.4765C13.7469 45.4601 21.1918 39.624 30 39.624C38.8082 39.624 46.2531 45.4601 48.679 53.4765Z" fill="#D7D7D7"/>
</g>
<defs>
<clipPath id="clip0_2002_377">
<rect width="60" height="60" fill="white"/>
</clipPath>
</defs>
</svg>
