<svg width="100" height="101" viewBox="0 0 100 101" fill="none" xmlns="http://www.w3.org/2000/svg">
<path d="M47.926 50.5959H62.756L66.474 67.0679H51.796L47.926 50.5959Z" fill="#FF8700"/>
<path d="M28.994 34.1221H44.058L47.926 50.5961H32.864L28.994 34.1221Z" fill="#FF8700"/>
<path d="M72.622 36.2101C75.8827 36.2101 78.526 33.5668 78.526 30.3061C78.526 27.0454 75.8827 24.4021 72.622 24.4021C69.3613 24.4021 66.718 27.0454 66.718 30.3061C66.718 33.5668 69.3613 36.2101 72.622 36.2101Z" stroke="#FF8700" stroke-width="1.28" stroke-linecap="round" stroke-linejoin="round"/>
<path d="M72.624 21.038V17.126" stroke="#FF8700" stroke-width="1.28" stroke-linecap="round" stroke-linejoin="round"/>
<path d="M66.666 23.204L64.152 20.208" stroke="#FF8700" stroke-width="1.28" stroke-linecap="round" stroke-linejoin="round"/>
<path d="M63.494 28.6939L59.642 28.0139" stroke="#2D333A" stroke-width="1.28" stroke-linecap="round" stroke-linejoin="round"/>
<path d="M64.594 34.938L61.206 36.892" stroke="#FF8700" stroke-width="1.28" stroke-linecap="round" stroke-linejoin="round"/>
<path d="M69.45 39.012L68.112 42.688" stroke="#FF8700" stroke-width="1.28" stroke-linecap="round" stroke-linejoin="round"/>
<path d="M75.788 39.0139L77.126 42.6899" stroke="#2D333A" stroke-width="1.28" stroke-linecap="round" stroke-linejoin="round"/>
<path d="M80.646 34.9399L84.034 36.8959" stroke="#FF8700" stroke-width="1.28" stroke-linecap="round" stroke-linejoin="round"/>
<path d="M81.748 28.6981L85.6 28.0181" stroke="#FF8700" stroke-width="1.28" stroke-linecap="round" stroke-linejoin="round"/>
<path d="M78.58 23.2079L81.094 20.2119" stroke="#2D333A" stroke-width="1.28" stroke-linecap="round" stroke-linejoin="round"/>
<path d="M18.546 50.6021H77.252" stroke="#2D333A" stroke-width="1.28" stroke-linecap="round" stroke-linejoin="round"/>
<path d="M36.732 67.0681L28.994 34.1221" stroke="#2D333A" stroke-width="1.28" stroke-linecap="round" stroke-linejoin="round"/>
<path d="M51.796 67.0681L44.058 34.1221" stroke="#2D333A" stroke-width="1.28" stroke-linecap="round" stroke-linejoin="round"/>
<path d="M66.474 67.0679L61.222 43.7959" stroke="#2D333A" stroke-width="1.28" stroke-linecap="round" stroke-linejoin="round"/>
<path d="M14.4 83.874H85.3" stroke="#2D333A" stroke-width="1.28" stroke-linecap="round" stroke-linejoin="round"/>
<path d="M47.458 67.428V83.874" stroke="#2D333A" stroke-width="1.28" stroke-linecap="round" stroke-linejoin="round"/>
<path d="M54.256 83.874V67.428" stroke="#2D333A" stroke-width="1.28" stroke-linecap="round" stroke-linejoin="round"/>
<path d="M31.24 72.778H29.818L31.2 69.55C31.218 69.5135 31.2268 69.4733 31.2259 69.4327C31.2249 69.3921 31.2142 69.3523 31.1945 69.3168C31.1749 69.2812 31.1469 69.2509 31.1131 69.2285C31.0792 69.2061 31.0404 69.1922 31 69.188H28.826C28.7823 69.1889 28.7398 69.2029 28.7041 69.2282C28.6685 69.2535 28.6413 69.289 28.626 69.33L27.2 73.562C27.1821 73.5984 27.1732 73.6387 27.1741 73.6793C27.1751 73.7199 27.1859 73.7596 27.2055 73.7952C27.2251 73.8308 27.2531 73.861 27.287 73.8835C27.3208 73.9059 27.3596 73.9198 27.4 73.924H29.022C29.0585 73.9275 29.0938 73.939 29.1253 73.9578C29.1568 73.9765 29.1837 74.002 29.2042 74.0324C29.2246 74.0628 29.2381 74.0974 29.2436 74.1336C29.2491 74.1699 29.2465 74.2069 29.236 74.242L28 77.21C27.936 77.474 28.234 77.646 28.386 77.436L31.418 73.19C31.4462 73.1538 31.4641 73.1107 31.4699 73.0652C31.4757 73.0197 31.4691 72.9734 31.4509 72.9313C31.4327 72.8892 31.4035 72.8528 31.3664 72.8258C31.3293 72.7988 31.2857 72.7823 31.24 72.778Z" fill="#FF8700"/>
<path d="M40.326 58.4999C40.9667 58.4999 41.486 57.9806 41.486 57.3399C41.486 56.6993 40.9667 56.1799 40.326 56.1799C39.6854 56.1799 39.166 56.6993 39.166 57.3399C39.166 57.9806 39.6854 58.4999 40.326 58.4999Z" fill="#FF8700"/>
<path d="M42.454 59.662C42.8815 59.662 43.228 59.3155 43.228 58.888C43.228 58.4605 42.8815 58.114 42.454 58.114C42.0265 58.114 41.68 58.4605 41.68 58.888C41.68 59.3155 42.0265 59.662 42.454 59.662Z" fill="#2D333A"/>
<path d="M75.152 32.3801C75.7927 32.3801 76.312 31.8607 76.312 31.2201C76.312 30.5794 75.7927 30.0601 75.152 30.0601C74.5114 30.0601 73.992 30.5794 73.992 31.2201C73.992 31.8607 74.5114 32.3801 75.152 32.3801Z" fill="#FF8700"/>
<path d="M73.024 33.5419C73.4515 33.5419 73.798 33.1954 73.798 32.7679C73.798 32.3404 73.4515 31.9939 73.024 31.9939C72.5965 31.9939 72.25 32.3404 72.25 32.7679C72.25 33.1954 72.5965 33.5419 73.024 33.5419Z" fill="#2D333A"/>
<path d="M82.092 83.8459C82.2579 83.3829 82.3296 82.8913 82.3027 82.4002C82.2758 81.9091 82.151 81.4283 81.9355 80.9861C81.72 80.5439 81.4183 80.1493 81.048 79.8255C80.6778 79.5017 80.2465 79.2553 79.7796 79.1007C79.3126 78.946 78.8195 78.8864 78.3291 78.9252C77.8388 78.964 77.3612 79.1005 76.9244 79.3267C76.4876 79.5529 76.1005 79.8641 75.7858 80.2422C75.4711 80.6202 75.2352 81.0574 75.092 81.5279C74.5486 81.229 73.9382 81.0728 73.318 81.0739C73.206 81.0739 73.098 81.0739 72.99 81.0879C72.9543 79.8725 72.4418 78.7199 71.5633 77.8791C70.6848 77.0383 69.5108 76.5769 68.295 76.5945C67.0791 76.6121 65.919 77.1073 65.0652 77.9731C64.2114 78.839 63.7325 80.0059 63.732 81.2219C63.732 81.3619 63.732 81.5039 63.752 81.6419C63.5791 81.6171 63.4047 81.6044 63.23 81.6039C62.5057 81.6025 61.7971 81.8144 61.1925 82.2131C60.5878 82.6118 60.114 83.1797 59.83 83.8459H82.092Z" stroke="#2D333A" stroke-width="1.28" stroke-linecap="round" stroke-linejoin="round"/>
<path d="M67.414 80.1701C67.8415 80.1701 68.188 79.8235 68.188 79.3961C68.188 78.9686 67.8415 78.6221 67.414 78.6221C66.9865 78.6221 66.64 78.9686 66.64 79.3961C66.64 79.8235 66.9865 80.1701 67.414 80.1701Z" fill="#FF8700"/>
<path d="M53.6 34.1221H15.244C15.1563 34.1218 15.0697 34.1415 14.9906 34.1795C14.9116 34.2176 14.8423 34.273 14.7878 34.3418C14.7333 34.4105 14.6951 34.4907 14.6761 34.5763C14.6571 34.6619 14.6577 34.7507 14.678 34.8361L22.144 66.6201C22.1738 66.7477 22.246 66.8615 22.3488 66.9429C22.4516 67.0242 22.5789 67.0683 22.71 67.0681H24.22V64.8401H27.448V63.0041H31V64.8401H34.23V67.0681H80.21C80.2982 67.068 80.3853 67.0478 80.4645 67.0091C80.5438 66.9703 80.6131 66.914 80.6673 66.8443C80.7215 66.7747 80.7591 66.6936 80.7772 66.6073C80.7954 66.521 80.7936 66.4316 80.772 66.3461L76.504 49.4061" stroke="#2D333A" stroke-width="1.28" stroke-linecap="round" stroke-linejoin="round"/>
<path d="M31.002 64.8399V63.0039H27.448V64.8399H24.218V67.0679V83.7119H34.232V67.0679V64.8399H31.002Z" stroke="#2D333A" stroke-width="1.28" stroke-linecap="round" stroke-linejoin="round"/>
</svg>
