<svg width="100" height="101" viewBox="0 0 100 101" fill="none" xmlns="http://www.w3.org/2000/svg">
<path d="M30.68 16.2C26.1 16.2 22.4 19.9 22.4 24.48C22.4 24.48 22.4 24.48 22.4 24.5V25.76C22.4 26.06 22.64 26.3 22.94 26.3H35.46L35.72 21.5C35.86 18.74 33.74 16.38 30.98 16.22C30.86 16.22 30.78 16.22 30.68 16.2Z" fill="#FF8700"/>
<path d="M35.98 16.2H30.7C26.12 16.2 22.42 19.9 22.42 24.48C22.42 24.48 22.42 24.48 22.42 24.5V25.76C22.42 26.06 22.66 26.3 22.96 26.3H35.48C35.78 26.3 36.02 26.54 36.02 26.84V83.84C36.02 84.14 36.26 84.38 36.56 84.38C36.68 84.38 36.8 84.3399 36.9 84.2599L42.28 80.08C42.48 79.92 42.74 79.92 42.94 80.08L49.14 84.72C49.34 84.86 49.6 84.86 49.78 84.72L56.26 80.04C56.44 79.9 56.7 79.9 56.9 80.04L63.54 84.72C63.72 84.86 63.98 84.86 64.18 84.72L70.62 80.0599C70.82 79.9199 71.08 79.9199 71.28 80.0599L76.8 84.2599C77.02 84.4399 77.36 84.4 77.54 84.18C77.62 84.08 77.66 83.96 77.66 83.84V21.54C77.66 18.6 75.28 16.22 72.34 16.22L35.98 16.2Z" stroke="#2D333A" stroke-width="1.6" stroke-linecap="round" stroke-linejoin="round"/>
<path d="M70.44 29.4999H67.02L70.32 21.7599C70.5 21.3599 70.24 20.8999 69.84 20.8999H64.64C64.42 20.8999 64.24 21.0399 64.16 21.2399L60.74 31.3999C60.56 31.7999 60.82 32.2799 61.22 32.2799H65.12C65.44 32.3199 65.68 32.5999 65.66 32.9399C65.66 32.9799 65.64 33.0199 65.64 33.0399L62.66 40.1599C62.5 40.7999 63.22 41.1999 63.58 40.6999L70.86 30.4999C71.12 30.0799 70.88 29.4999 70.44 29.4999Z" fill="#FF8700" stroke="#2D333A" stroke-width="1.6" stroke-miterlimit="10"/>
<path d="M40.94 46.4399H72.18" stroke="#2D333A" stroke-width="1.6" stroke-linecap="round" stroke-linejoin="round"/>
<path d="M40.94 53.3999H72.18" stroke="#2D333A" stroke-width="1.6" stroke-linecap="round" stroke-linejoin="round"/>
<path d="M59.74 60.3799H72.18" stroke="#2D333A" stroke-width="1.6" stroke-linecap="round" stroke-linejoin="round"/>
<path d="M59.74 67.3401H72.18" stroke="#2D333A" stroke-width="1.6" stroke-linecap="round" stroke-linejoin="round"/>
<path d="M40.94 32.5H53.38" stroke="#2D333A" stroke-width="1.6" stroke-linecap="round" stroke-linejoin="round"/>
<path d="M40.94 25.54H53.38" stroke="#2D333A" stroke-width="1.6" stroke-linecap="round" stroke-linejoin="round"/>
<path d="M40.94 39.48H53.38" stroke="#2D333A" stroke-width="1.6" stroke-linecap="round" stroke-linejoin="round"/>
<path d="M35.98 27.54V21.54C35.98 18.6 33.6 16.22 30.66 16.22H30.64H30.16" stroke="#2D333A" stroke-width="1.6" stroke-linecap="round" stroke-linejoin="round"/>
<path d="M64.28 76.1C64.8654 76.1 65.34 75.6254 65.34 75.04C65.34 74.4546 64.8654 73.98 64.28 73.98C63.6945 73.98 63.22 74.4546 63.22 75.04C63.22 75.6254 63.6945 76.1 64.28 76.1Z" fill="#FF8700"/>
<path d="M66.24 77.16C66.6266 77.16 66.94 76.8466 66.94 76.46C66.94 76.0734 66.6266 75.76 66.24 75.76C65.8534 75.76 65.54 76.0734 65.54 76.46C65.54 76.8466 65.8534 77.16 66.24 77.16Z" fill="#2D333A"/>
<path d="M39.6 57.9801C39.9866 57.9801 40.3 57.6667 40.3 57.2801C40.3 56.8935 39.9866 56.5801 39.6 56.5801C39.2134 56.5801 38.9 56.8935 38.9 57.2801C38.9 57.6667 39.2134 57.9801 39.6 57.9801Z" fill="#FF8700"/>
<path d="M48.3 77.44C43.34 77.44 39.32 73.42 39.32 68.46C39.32 63.5 43.34 59.48 48.3 59.48C53.26 59.48 57.28 63.5 57.28 68.46C57.28 73.42 53.26 77.44 48.3 77.44ZM44.56 69.44C44.56 69.46 44.54 69.48 44.54 69.5C44.54 69.52 44.54 69.52 44.52 69.54C44.46 69.74 44.42 69.96 44.42 70.18C44.42 70.74 44.58 71.28 44.9 71.74C45.26 72.24 45.74 72.6 46.28 72.8C46.92 73.06 47.6 73.18 48.32 73.18C48.38 73.18 48.42 73.18 48.48 73.18C49.76 73.18 50.96 72.88 52.04 72.26C52.18 72.18 52.24 72 52.18 71.86L51.9 71.08C51.84 70.94 51.72 70.86 51.58 70.86C51.56 70.86 51.5 70.86 51.44 70.9C51.08 71.1 50.68 71.26 50.28 71.38C49.68 71.56 49.04 71.66 48.42 71.66C48.36 71.66 48.32 71.66 48.26 71.66C47.9 71.66 47.52 71.6 47.16 71.48C46.88 71.4 46.64 71.24 46.44 71.02C46.3 70.82 46.22 70.6 46.22 70.34C46.22 70.12 46.3 69.92 46.44 69.8C46.58 69.66 46.7 69.56 46.84 69.5C46.92 69.46 46.96 69.46 47.02 69.46H52.66C52.84 69.46 52.98 69.32 52.98 69.14V69.04H52.94V68.82C52.94 68.64 52.8 68.5 52.62 68.5H43.86C43.68 68.5 43.54 68.64 43.54 68.82V69.14C43.54 69.32 43.68 69.46 43.86 69.46H44.54L44.56 69.44ZM43.94 67.38C43.76 67.38 43.62 67.52 43.62 67.7V68.02C43.62 68.2 43.76 68.34 43.94 68.34H52.7C52.88 68.34 53.02 68.2 53.02 68.02V67.92H53V67.72C53 67.54 52.86 67.4 52.68 67.4H52.02V67.36C52.08 67.18 52.1 66.96 52.1 66.72C52.12 66.16 51.96 65.6 51.62 65.14C51.3 64.68 50.84 64.32 50.26 64.08C49.66 63.82 48.96 63.7 48.26 63.7C48.2 63.7 48.16 63.7 48.1 63.7C47.56 63.7 47 63.76 46.48 63.88C46.04 63.98 45.62 64.12 45.18 64.3C45.02 64.4 44.96 64.56 45 64.7L45.24 65.5L45.26 65.54C45.32 65.66 45.44 65.74 45.56 65.74C45.6 65.74 45.64 65.74 45.68 65.72C46.5 65.4 47.34 65.22 48.16 65.22C48.2 65.22 48.26 65.22 48.3 65.22C48.66 65.22 49.02 65.28 49.42 65.42C49.68 65.5 49.94 65.68 50.12 65.92C50.26 66.12 50.34 66.36 50.34 66.62C50.34 66.86 50.26 67.04 50.08 67.18C50.06 67.2 50.04 67.2 50.02 67.22C49.98 67.24 49.94 67.28 49.9 67.3C49.84 67.34 49.76 67.34 49.7 67.34H43.94V67.38Z" fill="#FF8700"/>
<path d="M48.3 78.2199C42.9 78.2199 38.52 73.8399 38.52 68.4399C38.52 63.0399 42.9 58.6599 48.3 58.6599C53.7 58.6599 58.08 63.0399 58.08 68.4399C58.08 73.8399 53.7 78.2199 48.3 78.2199ZM48.3 60.0799C43.68 60.0799 39.92 63.8399 39.92 68.4599C39.92 73.0799 43.68 76.8399 48.3 76.8399C52.92 76.8399 56.68 73.0799 56.68 68.4599C56.68 63.8399 52.92 60.0799 48.3 60.0799Z" fill="#2D333A"/>
</svg>
