<svg width="100" height="101" viewBox="0 0 100 101" fill="none" xmlns="http://www.w3.org/2000/svg">
<path d="M57.148 70.162C57.3923 69.6628 57.5339 69.1196 57.5643 68.5647C57.5948 68.0097 57.5135 67.4543 57.3254 66.9314C57.1372 66.4084 56.8459 65.9286 56.4689 65.5203C56.0919 65.112 55.6367 64.7835 55.1303 64.5544C54.624 64.3253 54.0768 64.2001 53.5212 64.1864C52.9656 64.1726 52.4129 64.2706 51.8959 64.4744C51.3788 64.6782 50.908 64.9838 50.5112 65.373C50.1144 65.7621 49.7998 66.227 49.586 66.74C49.0128 66.34 48.3473 66.0922 47.652 66.02C47.528 66.008 47.406 66 47.284 65.998C47.3895 64.6317 46.9528 63.2788 46.0684 62.232C45.1841 61.1852 43.9232 60.5287 42.5585 60.4043C41.1938 60.28 39.8351 60.6979 38.7761 61.5677C37.7172 62.4375 37.0432 63.6891 36.9 65.052C36.882 65.212 36.874 65.37 36.872 65.526C36.6813 65.4779 36.4875 65.4431 36.292 65.422C35.4824 65.3365 34.6654 65.4909 33.9429 65.8661C33.2203 66.2413 32.6239 66.8206 32.228 67.532L57.148 70.162Z" fill="#FF8700"/>
<path d="M36.766 84.8881L56.8 85.9581C57.4464 85.9924 58.093 85.8957 58.701 85.6736C59.309 85.4516 59.8658 85.1089 60.338 84.6661L77.092 68.9421C78.864 67.2681 79.05 64.4641 77.426 62.6461C77.0274 62.1976 76.5427 61.8339 76.0007 61.5764C75.4587 61.319 74.8705 61.1732 74.271 61.1476C73.6716 61.1221 73.0731 61.2173 72.5112 61.4276C71.9492 61.638 71.4353 61.9592 71 62.3721L59 73.6841" stroke="#2D333A" stroke-width="1.28" stroke-miterlimit="10" stroke-linecap="round"/>
<path d="M41.048 77.1141L54.112 78.5001C55.2524 78.6199 56.3938 78.2819 57.2849 77.5602C58.1761 76.8386 58.7441 75.7925 58.864 74.6521C58.9839 73.5116 58.6458 72.3703 57.9242 71.4791C57.2025 70.5879 56.1564 70.0199 55.016 69.9001L33.768 67.6701C33.0568 67.5954 32.3379 67.6805 31.6639 67.9192C30.9898 68.158 30.3776 68.5444 29.872 69.0501L21.6 77.3281C21.5108 77.418 21.4608 77.5395 21.4608 77.6661C21.4608 77.7927 21.5108 77.9142 21.6 78.0041L31.754 88.1601C31.8345 88.2401 31.9407 88.2891 32.0538 88.2982C32.167 88.3074 32.2797 88.2761 32.372 88.2101L36.618 85.1781C36.6746 85.1378 36.7219 85.0857 36.7564 85.0254C36.791 84.9651 36.812 84.8981 36.8181 84.8288C36.8242 84.7596 36.8152 84.6899 36.7917 84.6245C36.7682 84.5591 36.7307 84.4996 36.682 84.4501L30.4 78.1001" stroke="#2D333A" stroke-width="1.28" stroke-miterlimit="10" stroke-linecap="round"/>
<path d="M48.52 59.6341L48.618 41.8241C48.6302 39.1413 48.1122 36.4826 47.094 34.0005C46.0757 31.5185 44.5772 29.2621 42.6844 27.3608C40.7917 25.4595 38.542 23.9508 36.0646 22.9214C33.5872 21.892 30.9308 21.362 28.248 21.3621" stroke="#2D333A" stroke-width="1.28" stroke-linecap="round" stroke-linejoin="round"/>
<path d="M60.3739 43.5381H65.428C65.428 46.4289 64.2796 49.2014 62.2354 51.2456C60.1913 53.2897 57.4188 54.4381 54.528 54.4381H49.476C49.476 51.5472 50.6243 48.7748 52.6685 46.7306C54.7126 44.6865 57.4851 43.5381 60.376 43.5381H60.3739Z" stroke="#2D333A" stroke-width="1.28" stroke-linecap="round" stroke-linejoin="round"/>
<path d="M29.6011 48.6241L34.4086 47.0714C37.1595 46.1829 40.1507 46.4235 42.7242 47.7404C45.2977 49.0574 47.2426 51.3426 48.1312 54.0936L43.3218 55.6469C40.5709 56.5355 37.5797 56.2948 35.0062 54.9779C32.4327 53.661 30.4878 51.3757 29.5992 48.6248L29.6011 48.6241Z" stroke="#2D333A" stroke-width="1.28" stroke-linecap="round" stroke-linejoin="round"/>
<path d="M56.8898 30.5685L61.4182 29.6331C61.6832 30.9164 61.6928 32.2392 61.4464 33.5262C61.2 34.8131 60.7025 36.0389 59.9822 37.1334C59.2619 38.228 58.333 39.1699 57.2485 39.9054C56.1641 40.6408 54.9454 41.1554 53.662 41.4197L49.1394 42.3538C48.6044 39.7632 49.1203 37.0661 50.5738 34.856C52.0273 32.6458 54.2992 31.1035 56.8898 30.5685Z" stroke="#2D333A" stroke-width="1.28" stroke-linecap="round" stroke-linejoin="round"/>
<path d="M32.544 36.9511L36.7102 35.8161C39.0918 35.1672 41.6337 35.4908 43.7769 36.7156C45.92 37.9404 47.4891 39.9662 48.139 42.3476L43.9748 43.4821C41.5924 44.1311 39.0498 43.8072 36.9063 42.5816C34.7628 41.356 33.194 39.3291 32.5449 36.9467L32.544 36.9511Z" fill="#FF8700" stroke="#2D333A" stroke-width="1.28" stroke-linecap="round" stroke-linejoin="round"/>
<path d="M30.6891 27.6356L33.8559 26.1265C35.6678 25.263 37.7485 25.1547 39.6403 25.8254C41.5321 26.496 43.08 27.8907 43.9435 29.7027L40.7749 31.2127C38.9629 32.0761 36.8822 32.1844 34.9904 31.5138C33.0986 30.8431 31.5507 29.4484 30.6873 27.6365L30.6891 27.6356Z" stroke="#2D333A" stroke-width="1.28" stroke-linecap="round" stroke-linejoin="round"/>
<path d="M37.9565 14.9244L39.7595 12.7018C41.0312 13.7334 41.8409 15.2279 42.0107 16.8565C42.1804 18.4851 41.6962 20.1145 40.6646 21.3861L38.8666 23.6025C37.596 22.5718 36.7865 21.0789 36.6159 19.4518C36.4452 17.8246 36.9274 16.1963 37.9565 14.9244Z" stroke="#2D333A" stroke-width="1.28" stroke-linecap="round" stroke-linejoin="round"/>
<path d="M50.0868 19.4024L53.446 17.9494L53.5397 18.166C54.4478 20.2693 54.4835 22.6471 53.639 24.7768C52.7945 26.9064 51.139 28.6136 49.0363 29.5231L45.677 30.9761L45.5834 30.7595C44.6735 28.6558 44.6365 26.2769 45.4806 24.146C46.3247 22.0151 47.9808 20.3068 50.0844 19.3969L50.0868 19.4024Z" fill="#FF8700" stroke="#2D333A" stroke-width="1.28" stroke-linecap="round" stroke-linejoin="round"/>
<path d="M25.0259 22.12C25.4446 22.12 25.7839 21.7806 25.7839 21.362C25.7839 20.9434 25.4446 20.604 25.0259 20.604C24.6073 20.604 24.2679 20.9434 24.2679 21.362C24.2679 21.7806 24.6073 22.12 25.0259 22.12Z" fill="#FF8700"/>
<path d="M60.458 48.6441C61.0854 48.6441 61.594 48.1355 61.594 47.5081C61.594 46.8807 61.0854 46.3721 60.458 46.3721C59.8306 46.3721 59.322 46.8807 59.322 47.5081C59.322 48.1355 59.8306 48.6441 60.458 48.6441Z" fill="#FF8700"/>
<path d="M58.374 49.7821C58.7926 49.7821 59.132 49.4427 59.132 49.0241C59.132 48.6055 58.7926 48.2661 58.374 48.2661C57.9553 48.2661 57.616 48.6055 57.616 49.0241C57.616 49.4427 57.9553 49.7821 58.374 49.7821Z" fill="#2D333A"/>
<path d="M29.384 34.2439C30.0114 34.2439 30.52 33.7353 30.52 33.1079C30.52 32.4805 30.0114 31.9719 29.384 31.9719C28.7566 31.9719 28.248 32.4805 28.248 33.1079C28.248 33.7353 28.7566 34.2439 29.384 34.2439Z" fill="#FF8700"/>
<path d="M27.3 32.35C27.7186 32.35 28.058 32.0106 28.058 31.592C28.058 31.1734 27.7186 30.834 27.3 30.834C26.8814 30.834 26.542 31.1734 26.542 31.592C26.542 32.0106 26.8814 32.35 27.3 32.35Z" fill="#2D333A"/>
</svg>
