<svg width="100" height="101" viewBox="0 0 100 101" fill="none" xmlns="http://www.w3.org/2000/svg">
<g id="Benefits">
<path id="Vector" d="M15.498 69.1021H84.252" stroke="#2D333A" stroke-width="1.24" stroke-linecap="round" stroke-linejoin="round"/>
<path id="Vector_2" d="M48.536 58.874V50.188" stroke="#2D333A" stroke-width="1.24" stroke-linecap="round" stroke-linejoin="round"/>
<path id="Vector_3" d="M52.61 54.53H44.462" stroke="#2D333A" stroke-width="1.24" stroke-linecap="round" stroke-linejoin="round"/>
<path id="Vector_4" d="M56.738 32.978L50 39.756C49.9481 39.805 49.887 39.8431 49.8203 39.8682C49.7535 39.8934 49.6824 39.905 49.6111 39.9023C49.5399 39.8997 49.4698 39.883 49.4051 39.8531C49.3403 39.8231 49.2822 39.7806 49.234 39.728L46.074 36.358C46.0236 36.3019 45.9619 36.2571 45.893 36.2264C45.824 36.1957 45.7494 36.1798 45.674 36.1798C45.5986 36.1798 45.524 36.1957 45.4551 36.2264C45.3861 36.2571 45.3245 36.3019 45.274 36.358L39.578 42.3" stroke="#FF8700" stroke-width="1.24" stroke-linecap="round" stroke-linejoin="round"/>
<path id="Vector_5" d="M51.486 32.5779L57.128 32.6559L56.598 38.6439" stroke="#FF8700" stroke-width="1.24" stroke-linecap="round" stroke-linejoin="round"/>
<path id="Vector_6" d="M55.84 73.6261L62.694 83.4261H37.054L43.908 73.6261C44.5794 72.6668 45.4723 71.8835 46.5108 71.3427C47.5494 70.8019 48.7031 70.5195 49.874 70.5195C51.045 70.5195 52.1986 70.8019 53.2372 71.3427C54.2758 71.8835 55.1686 72.6668 55.84 73.6261Z" fill="#FF8700" stroke="#2D333A" stroke-width="1.3952" stroke-linecap="round" stroke-linejoin="round"/>
<path id="Vector_7" d="M74.134 39.9001V24.7581C74.134 21.2081 76.834 18.3301 80.164 18.3301" stroke="#2D333A" stroke-width="1.24" stroke-linecap="round" stroke-linejoin="round"/>
<path id="Vector_8" d="M74.188 43.3779V42.3779" stroke="#FF8700" stroke-width="1.24" stroke-linecap="round" stroke-linejoin="round"/>
<path id="Vector_9" d="M74.132 32.2739H69.478C66.5224 32.2739 63.6879 31.0998 61.598 29.0099C59.5081 26.92 58.334 24.0855 58.334 21.1299V20.7679H62.99C65.9456 20.7679 68.7801 21.942 70.87 24.0319C72.9599 26.1218 74.134 28.9564 74.134 31.9119V32.2739H74.132Z" stroke="#2D333A" stroke-width="1.24" stroke-linecap="round" stroke-linejoin="round"/>
<path id="Vector_10" d="M82.464 24.5779H85.942V24.8479C85.942 27.0571 85.0644 29.1759 83.5022 30.7381C81.94 32.3003 79.8213 33.1779 77.612 33.1779H74.134V32.8999C74.1361 30.692 75.0147 28.5753 76.5766 27.0149C78.1386 25.4544 80.2561 24.5779 82.464 24.5779Z" stroke="#2D333A" stroke-width="1.24" stroke-linecap="round" stroke-linejoin="round"/>
<path id="Vector_11" d="M80.942 51.022H66.7V54.34H80.942V51.022Z" fill="#FF8700" stroke="#2D333A" stroke-width="1.1296" stroke-linecap="round" stroke-linejoin="round"/>
<path id="Vector_12" d="M80.942 59.2219H66.7V62.5399H80.942V59.2219Z" fill="#FF8700" stroke="#2D333A" stroke-width="1.1296" stroke-linecap="round" stroke-linejoin="round"/>
<path id="Vector_13" d="M66.39 67.834H81.218C82.4717 67.834 83.488 66.8177 83.488 65.564V65.418C83.488 64.1643 82.4717 63.148 81.218 63.148H66.39C65.1363 63.148 64.12 64.1643 64.12 65.418V65.564C64.12 66.8177 65.1363 67.834 66.39 67.834Z" stroke="#2D333A" stroke-width="1.24" stroke-linecap="round" stroke-linejoin="round"/>
<path id="Vector_14" d="M66.39 59.1499H81.218C82.4717 59.1499 83.488 58.1336 83.488 56.8799V56.7339C83.488 55.4802 82.4717 54.4639 81.218 54.4639H66.39C65.1363 54.4639 64.12 55.4802 64.12 56.7339V56.8799C64.12 58.1336 65.1363 59.1499 66.39 59.1499Z" stroke="#2D333A" stroke-width="1.24" stroke-linecap="round" stroke-linejoin="round"/>
<path id="Vector_15" d="M66.39 51.064H81.218C82.4717 51.064 83.488 50.0476 83.488 48.794V48.648C83.488 47.3943 82.4717 46.378 81.218 46.378H66.39C65.1363 46.378 64.12 47.3943 64.12 48.648V48.794C64.12 50.0476 65.1363 51.064 66.39 51.064Z" stroke="#2D333A" stroke-width="1.24" stroke-linecap="round" stroke-linejoin="round"/>
<path id="Vector_16" d="M82.63 19.1779C83.0442 19.1779 83.38 18.8197 83.38 18.3779C83.38 17.9361 83.0442 17.5779 82.63 17.5779C82.2158 17.5779 81.88 17.9361 81.88 18.3779C81.88 18.8197 82.2158 19.1779 82.63 19.1779Z" fill="#FF8700"/>
<path id="Vector_17" d="M65.932 27.578C66.5539 27.578 67.058 27.0407 67.058 26.378C67.058 25.7152 66.5539 25.178 65.932 25.178C65.3101 25.178 64.806 25.7152 64.806 26.378C64.806 27.0407 65.3101 27.578 65.932 27.578Z" fill="#FF8700"/>
<path id="Vector_18" d="M67.996 28.778C68.4102 28.778 68.746 28.4198 68.746 27.978C68.746 27.5362 68.4102 27.178 67.996 27.178C67.5818 27.178 67.246 27.5362 67.246 27.978C67.246 28.4198 67.5818 28.778 67.996 28.778Z" fill="#2D333A"/>
<path id="Vector_19" d="M25.866 39.9001V24.7581C25.866 21.2081 23.166 18.3301 19.836 18.3301" stroke="#2D333A" stroke-width="1.24" stroke-linecap="round" stroke-linejoin="round"/>
<path id="Vector_20" d="M25.812 43.3779V42.3779" stroke="#FF8700" stroke-width="1.24" stroke-linecap="round" stroke-linejoin="round"/>
<path id="Vector_21" d="M37.01 20.7681H41.664V21.1301C41.664 24.0856 40.4899 26.9202 38.4 29.0101C36.3101 31.1 33.4756 32.2741 30.52 32.2741H25.868V31.9121C25.868 28.9568 27.0418 26.1226 29.1313 24.0328C31.2208 21.9429 34.0548 20.7686 37.01 20.7681Z" stroke="#2D333A" stroke-width="1.24" stroke-linecap="round" stroke-linejoin="round"/>
<path id="Vector_22" d="M25.864 33.178H22.386C20.1781 33.178 18.0606 32.3015 16.4986 30.7411C14.9367 29.1806 14.0581 27.0639 14.056 24.856V24.586H17.536C19.7453 24.586 21.864 25.4637 23.4262 27.0258C24.9884 28.588 25.866 30.7068 25.866 32.916V33.186L25.864 33.178Z" stroke="#2D333A" stroke-width="1.24" stroke-linecap="round" stroke-linejoin="round"/>
<path id="Vector_23" d="M33.61 63.1499H18.782C17.5283 63.1499 16.512 64.1662 16.512 65.4199V65.5659C16.512 66.8196 17.5283 67.8359 18.782 67.8359H33.61C34.8637 67.8359 35.88 66.8196 35.88 65.5659V65.4199C35.88 64.1662 34.8637 63.1499 33.61 63.1499Z" stroke="#2D333A" stroke-width="1.24" stroke-linecap="round" stroke-linejoin="round"/>
<path id="Vector_24" d="M33.61 54.4641H18.782C17.5283 54.4641 16.512 55.4804 16.512 56.7341V56.8801C16.512 58.1338 17.5283 59.1501 18.782 59.1501H33.61C34.8637 59.1501 35.88 58.1338 35.88 56.8801V56.7341C35.88 55.4804 34.8637 54.4641 33.61 54.4641Z" stroke="#2D333A" stroke-width="1.24" stroke-linecap="round" stroke-linejoin="round"/>
<path id="Vector_25" d="M33.61 46.3779H18.782C17.5283 46.3779 16.512 47.3942 16.512 48.6479V48.7939C16.512 50.0476 17.5283 51.0639 18.782 51.0639H33.61C34.8637 51.0639 35.88 50.0476 35.88 48.7939V48.6479C35.88 47.3942 34.8637 46.3779 33.61 46.3779Z" stroke="#2D333A" stroke-width="1.24" stroke-linecap="round" stroke-linejoin="round"/>
<path id="Vector_26" d="M17.37 19.1779C17.7842 19.1779 18.12 18.8197 18.12 18.3779C18.12 17.9361 17.7842 17.5779 17.37 17.5779C16.9558 17.5779 16.62 17.9361 16.62 18.3779C16.62 18.8197 16.9558 19.1779 17.37 19.1779Z" fill="#FF8700"/>
<path id="Vector_27" d="M34.068 27.578C34.6899 27.578 35.194 27.0407 35.194 26.378C35.194 25.7152 34.6899 25.178 34.068 25.178C33.4461 25.178 32.942 25.7152 32.942 26.378C32.942 27.0407 33.4461 27.578 34.068 27.578Z" fill="#FF8700"/>
<path id="Vector_28" d="M32.004 28.778C32.4182 28.778 32.754 28.4198 32.754 27.978C32.754 27.5362 32.4182 27.178 32.004 27.178C31.5898 27.178 31.254 27.5362 31.254 27.978C31.254 28.4198 31.5898 28.778 32.004 28.778Z" fill="#2D333A"/>
<path id="Vector_29" d="M33.316 51.0161H19.074V54.3341H33.316V51.0161Z" fill="#FF8700" stroke="#2D333A" stroke-width="1.1296" stroke-linecap="round" stroke-linejoin="round"/>
<path id="Vector_30" d="M33.316 59.2161H19.074V62.5341H33.316V59.2161Z" fill="#FF8700" stroke="#2D333A" stroke-width="1.1296" stroke-linecap="round" stroke-linejoin="round"/>
</g>
</svg>
