<svg width="100" height="101" viewBox="0 0 100 101" fill="none" xmlns="http://www.w3.org/2000/svg">
<path d="M64.4 80.0999C66.9405 80.0999 69 78.0404 69 75.4999C69 72.9594 66.9405 70.8999 64.4 70.8999C61.8595 70.8999 59.8 72.9594 59.8 75.4999C59.8 78.0404 61.8595 80.0999 64.4 80.0999Z" stroke="#2D333A" stroke-width="1.6" stroke-linecap="round" stroke-linejoin="round"/>
<path d="M51.5472 59.6798C51.6463 59.0692 51.2317 58.4939 50.6211 58.3948C50.0105 58.2957 49.4352 58.7104 49.3361 59.321C49.237 59.9315 49.6517 60.5068 50.2622 60.6059C50.8728 60.705 51.4481 60.2904 51.5472 59.6798Z" fill="#2D333A"/>
<path d="M35.78 80.0999C38.3205 80.0999 40.38 78.0404 40.38 75.4999C40.38 72.9594 38.3205 70.8999 35.78 70.8999C33.2395 70.8999 31.18 72.9594 31.18 75.4999C31.18 78.0404 33.2395 80.0999 35.78 80.0999Z" stroke="#2D333A" stroke-width="1.6" stroke-linecap="round" stroke-linejoin="round"/>
<path d="M45.52 57.98L41.18 68.32C37.2 65.08 31.36 65.66 28.12 69.64C24.88 73.62 25.46 79.46 29.44 82.7C33.42 85.94 39.26 85.36 42.5 81.38C43.28 80.42 43.86 79.32 44.2 78.14L48.46 65.76L50.08 64.5L47.4 62.4L45.52 57.98Z" stroke="#2D333A" stroke-width="1.6" stroke-linecap="round" stroke-linejoin="round"/>
<path d="M54.66 57.9801L58.3 49.3601H51.02L54.66 57.9801Z" stroke="#2D333A" stroke-width="1.6" stroke-linecap="round" stroke-linejoin="round"/>
<path d="M76.84 16.2H23.16C22.66 16.2 22.26 16.6 22.26 17.1V48.44C22.26 48.94 22.66 49.34 23.16 49.34H41.86L40.18 45.34H32.3C32.3 42.36 29.88 39.96 26.92 39.96V25.56C29.9 25.56 32.3 23.14 32.3 20.18H67.72C67.72 23.16 70.14 25.56 73.1 25.56V39.96C70.12 39.96 67.72 42.36 67.72 45.34H49.36L51.04 49.34H76.84C77.34 49.34 77.74 48.94 77.74 48.44V17.12C77.74 16.62 77.34 16.2 76.84 16.2Z" stroke="#2D333A" stroke-width="1.6" stroke-linecap="round" stroke-linejoin="round"/>
<path d="M51.7 32.0399C51.64 32.0799 51.58 32.1399 51.52 32.1799C51.46 32.2199 51.38 32.2399 51.3 32.2399H46.1C45.98 32.2399 45.9 32.3199 45.9 32.4399V32.7199C45.9 32.8399 45.98 32.9199 46.1 32.9199H54C54.12 32.9199 54.2 32.8399 54.2 32.7199V32.4399C54.2 32.3199 54.12 32.2399 54 32.2399H53.3L53.34 32.0999C53.4 31.9199 53.42 31.7399 53.42 31.5399C53.42 31.0599 53.28 30.5799 53 30.1799C52.7 29.7599 52.28 29.4399 51.8 29.2599C51.18 29.0199 50.54 28.8999 49.88 28.9199C49.4 28.9199 48.9 28.9799 48.44 29.0799C48.04 29.1599 47.66 29.2999 47.28 29.4599C47.18 29.4999 47.14 29.5999 47.16 29.6999L47.38 30.4399C47.4 30.5199 47.48 30.5799 47.58 30.5799C47.6 30.5799 47.64 30.5799 47.66 30.5599C48.38 30.2599 49.16 30.1199 49.94 30.0999C50.34 30.0799 50.72 30.1399 51.1 30.2799C51.36 30.3799 51.6 30.5399 51.76 30.7599C51.9 30.9599 51.98 31.1999 51.98 31.4399C51.98 31.6999 51.88 31.9199 51.7 32.0399Z" fill="#FF8700"/>
<path d="M67.7 20.2H32.3C32.3 23.18 29.88 25.58 26.92 25.58V39.9799C29.9 39.9799 32.3 42.38 32.3 45.36H40.18L36.38 36.4C34.56 32.08 36.58 27.1 40.9 25.26L42.26 28.5C43.82 25.68 46.78 23.92 50 23.92C54.88 23.92 58.84 27.88 58.84 32.76C58.84 37.6399 54.88 41.6 50 41.6C49.2 41.6 48.4 41.4999 47.64 41.2799L49.36 45.3399H67.72C67.72 42.3599 70.14 39.96 73.1 39.96V25.56C70.12 25.58 67.7 23.18 67.7 20.2Z" fill="#FF8700"/>
<path d="M48.7 33.94C48.76 33.9 48.84 33.9 48.9 33.9H54C54.12 33.9 54.2 33.82 54.2 33.7V33.42C54.2 33.3 54.12 33.22 54 33.22H46.12C46 33.22 45.92 33.3 45.92 33.42V33.7C45.92 33.82 46 33.9 46.12 33.9H46.86L46.8 34.04L46.76 34.14C46.7 34.32 46.68 34.5 46.68 34.68C46.66 35.16 46.8 35.64 47.08 36.04C47.38 36.46 47.8 36.78 48.28 36.96C48.9 37.2 49.56 37.32 50.22 37.3C51.32 37.3 52.42 37.02 53.38 36.48C53.48 36.44 53.52 36.32 53.48 36.24L53.24 35.52C53.22 35.44 53.14 35.38 53.04 35.38C53 35.38 52.98 35.38 52.94 35.4C52.6 35.58 52.24 35.72 51.88 35.84C51.32 36 50.76 36.08 50.18 36.08C49.78 36.1 49.4 36.04 49.02 35.92C48.76 35.84 48.52 35.68 48.34 35.46C48.2 35.26 48.12 35.04 48.12 34.8C48.12 34.6 48.2 34.4 48.34 34.24C48.44 34.12 48.56 34.02 48.7 33.94Z" fill="#FF8700"/>
<path d="M32.3 46.08C31.92 46.08 31.6 45.76 31.6 45.38C31.6 42.8 29.5 40.7 26.92 40.7C26.72 40.7 26.56 40.62 26.44 40.5C26.3 40.36 26.22 40.18 26.22 40V25.6C26.22 25.22 26.54 24.9 26.92 24.9C29.5 24.9 31.6 22.8 31.6 20.22C31.6 19.84 31.92 19.52 32.3 19.52H67.72C68.1 19.52 68.42 19.84 68.42 20.22C68.42 22.8 70.52 24.9 73.1 24.9C73.48 24.9 73.8 25.22 73.8 25.6V40C73.8 40.38 73.48 40.7 73.1 40.7C70.52 40.7 68.42 42.8 68.42 45.38C68.4 45.76 68.08 46.06 67.7 46.06H49.34C49.06 46.06 48.8 45.88 48.7 45.64L40.54 26.22L40.44 26.28C38.9 27.12 37.66 28.5 36.98 30.16C36.2 32.08 36.2 34.2 37.02 36.14L40.82 45.1C40.9 45.32 40.88 45.58 40.76 45.76C40.64 45.96 40.42 46.08 40.18 46.08H32.3ZM40.9 24.58C41.18 24.58 41.44 24.74 41.56 25L49.82 44.66H67.06L67.08 44.58C67.44 41.84 69.6 39.68 72.34 39.32L72.42 39.3V26.22L72.34 26.2C69.6 25.84 67.44 23.68 67.08 20.94L67.06 20.86H32.96L32.94 20.94C32.58 23.68 30.42 25.84 27.68 26.2L27.6 26.22V39.3L27.68 39.32C30.42 39.68 32.58 41.84 32.94 44.58L32.96 44.66H39.12L35.74 36.68C34.78 34.42 34.76 31.92 35.68 29.64C36.62 27.36 38.38 25.58 40.62 24.64C40.64 24.64 40.64 24.62 40.66 24.62C40.68 24.62 40.7 24.6 40.72 24.6C40.78 24.58 40.84 24.58 40.9 24.58Z" fill="#2D333A"/>
<path d="M49.98 42.4199C49.12 42.4199 48.26 42.2999 47.42 42.0799C47.18 42.0199 47 41.8399 46.9 41.6199L41.52 28.8399C41.42 28.6199 41.44 28.3599 41.56 28.1399C43.26 25.0599 46.48 23.1599 50 23.1599C52.58 23.1599 55 24.1599 56.82 25.9799C58.64 27.7999 59.64 30.2199 59.64 32.7999C59.64 35.3799 58.64 37.7999 56.82 39.6199C55 41.4199 52.58 42.4199 49.98 42.4199C50 42.4199 50 42.4199 49.98 42.4199ZM48.22 40.6199C48.8 40.7599 49.4 40.8199 50 40.8199C52.14 40.8199 54.16 39.9799 55.68 38.4599C57.2 36.9399 58.04 34.9199 58.04 32.7799C58.04 28.3399 54.44 24.7399 50 24.7399C47.2 24.7399 44.6 26.1999 43.16 28.5799L48.22 40.6199Z" fill="#2D333A"/>
<path d="M64.88 66.22C62.74 66.22 60.66 66.96 59 68.32L54.64 57.98L51.02 49.36L49.34 45.36L47.64 41.3L42.26 28.52L40.9 25.28C36.58 27.1 34.56 32.1 36.38 36.42L40.18 45.38L41.86 49.38L45.5 58L47.38 62.42L50.06 64.52L51.68 65.78L55.94 78.16C57.4 83.08 62.56 85.88 67.48 84.42C72.4 82.96 75.2 77.8 73.74 72.88C72.6 68.92 68.98 66.22 64.88 66.22Z" stroke="#2D333A" stroke-width="1.6" stroke-linecap="round" stroke-linejoin="round"/>
<path d="M25.8 22.2001C26.3854 22.2001 26.86 21.7255 26.86 21.1401C26.86 20.5547 26.3854 20.0801 25.8 20.0801C25.2146 20.0801 24.74 20.5547 24.74 21.1401C24.74 21.7255 25.2146 22.2001 25.8 22.2001Z" fill="#FF8700"/>
<path d="M27.74 23.2801C28.1377 23.2801 28.46 22.9577 28.46 22.5601C28.46 22.1624 28.1377 21.8401 27.74 21.8401C27.3424 21.8401 27.02 22.1624 27.02 22.5601C27.02 22.9577 27.3424 23.2801 27.74 23.2801Z" fill="#2D333A"/>
<path d="M74.28 44.58C74.8654 44.58 75.34 44.1054 75.34 43.52C75.34 42.9345 74.8654 42.46 74.28 42.46C73.6945 42.46 73.22 42.9345 73.22 43.52C73.22 44.1054 73.6945 44.58 74.28 44.58Z" fill="#FF8700"/>
<path d="M72.32 45.64C72.7066 45.64 73.02 45.3266 73.02 44.94C73.02 44.5534 72.7066 44.24 72.32 44.24C71.9334 44.24 71.62 44.5534 71.62 44.94C71.62 45.3266 71.9334 45.64 72.32 45.64Z" fill="#2D333A"/>
<path d="M39.64 35.9C40.0376 35.9 40.36 35.5776 40.36 35.18C40.36 34.7823 40.0376 34.46 39.64 34.46C39.2423 34.46 38.92 34.7823 38.92 35.18C38.92 35.5776 39.2423 35.9 39.64 35.9Z" fill="#FF8700"/>
</svg>
