<svg width="100" height="101" viewBox="0 0 100 101" fill="none" xmlns="http://www.w3.org/2000/svg">
<g id="Benefits">
<path id="Vector" d="M20.3599 67.5201H36.4799C36.7799 67.5201 37.0399 67.2801 37.0399 66.9601V52.7001C37.0399 52.5401 36.9799 52.3801 36.8599 52.2801L28.9799 45.3801C28.7799 45.2001 28.4599 45.2001 28.2599 45.3801L20.0199 52.3001C19.8999 52.4001 19.8199 52.5601 19.8199 52.7201V66.9801C19.8199 67.2801 20.0599 67.5201 20.3599 67.5201Z" stroke="#2D333A" stroke-width="1.6" stroke-linecap="round" stroke-linejoin="round"/>
<path id="Vector_2" d="M30.08 35.3L28.94 34.3C28.74 34.12 28.42 34.12 28.22 34.28L15.22 45.2" stroke="#2D333A" stroke-width="3.2" stroke-linecap="round" stroke-linejoin="round"/>
<path id="Vector_3" d="M62.88 33.9601L61 35.6601C60.8 35.8401 60.48 35.8401 60.28 35.6601L49.84 26.6201C49.64 26.4401 49.32 26.4401 49.12 26.6201L34.68 38.7401C34.46 38.9201 34.16 38.9201 33.96 38.7201" stroke="#FF8700" stroke-width="3.2" stroke-linecap="round" stroke-linejoin="round"/>
<path id="Vector_4" d="M77.84 20.8799L66.98 30.2399" stroke="#2D333A" stroke-width="3.2" stroke-linecap="round" stroke-linejoin="round"/>
<path id="Vector_5" d="M25.7 57.78H31.84C32.14 57.78 32.4 58.02 32.4 58.34V67.46H25.16V58.34C25.14 58.04 25.38 57.78 25.7 57.78Z" fill="#FF8700" stroke="#2D333A" stroke-width="1.6" stroke-linecap="round" stroke-linejoin="round"/>
<path id="Vector_6" d="M56.58 43.7L48.7 36.8C48.5 36.62 48.18 36.62 47.98 36.8L39.74 43.7C39.62 43.8 39.54 43.96 39.54 44.12V67.52H56.76V44.12C56.78 43.96 56.7 43.8 56.58 43.7ZM47.1 46.1C47.7 46.1 48.2 46.6 48.2 47.2C48.2 47.8 47.7 48.3 47.1 48.3C46.5 48.3 46 47.8 46 47.2C46 46.6 46.5 46.1 47.1 46.1ZM51.78 67.48H44.54V58.34C44.54 58.04 44.78 57.78 45.1 57.78H51.24C51.54 57.78 51.8 58.02 51.8 58.34L51.78 67.48Z" fill="#FF8700"/>
<path id="Vector_7" d="M39.54 68.22C39.16 68.22 38.84 67.9 38.84 67.52V44.12C38.84 43.76 39 43.4 39.28 43.16L47.52 36.26C47.74 36.06 48.04 35.96 48.34 35.96C48.66 35.96 48.94 36.08 49.18 36.28L57.04 43.16C57.32 43.4 57.48 43.76 57.46 44.14V67.5C57.46 67.9 57.14 68.22 56.76 68.22H39.54ZM51.24 57.08C51.92 57.08 52.5 57.66 52.5 58.34L52.48 66.82H56.06V44.18L48.34 37.42L40.24 44.2V66.82H43.84V58.34C43.84 57.66 44.42 57.08 45.1 57.08H51.24ZM45.24 66.78H51.08L51.1 58.48H45.24V66.78Z" fill="#2D333A"/>
<path id="Vector_8" d="M64.2 59.8201V53.4201C64.2 53.1201 64.44 52.8601 64.76 52.8601H70.9C71.2 52.8601 71.46 53.1001 71.46 53.4201V58.0001H71.6C73.26 58.0601 74.9 58.4001 76.44 59.0201V50.6801C76.44 50.5201 76.38 50.3601 76.26 50.2601L68.38 43.3601C68.18 43.1801 67.86 43.1801 67.66 43.3601L59.42 50.2801C59.3 50.3801 59.22 50.5401 59.22 50.7001V64.5801C60.46 62.6001 62.18 60.9601 64.2 59.8201Z" stroke="#2D333A" stroke-width="1.6" stroke-linecap="round" stroke-linejoin="round"/>
<path id="Vector_9" d="M64.2 53.4201V59.8201C66.4 58.5801 68.9 57.9401 71.44 58.0001V53.4201C71.44 53.1201 71.2 52.8601 70.88 52.8601H64.74C64.46 52.8601 64.22 53.1001 64.2 53.4201Z" fill="#FF8700" stroke="#2D333A" stroke-width="1.6" stroke-linecap="round" stroke-linejoin="round"/>
<path id="Vector_10" d="M85.32 71.4C84.9 64.06 78.96 58.24 71.6 58H71.46C65.32 57.88 59.8 61.72 57.78 67.52H13.02C12.8 67.52 12.62 67.7 12.62 67.92C12.62 73 16.74 77.1401 21.84 77.1401L25.26 73.82C25.48 73.62 25.82 73.62 26.02 73.82L29.16 76.76C29.38 76.98 29.72 76.9601 29.94 76.7401L29.96 76.72L32.44 73.9C32.64 73.68 33 73.66 33.22 73.86L33.24 73.88L36.16 76.76C36.38 76.98 36.72 76.98 36.94 76.76L39.76 73.86C39.98 73.64 40.32 73.6401 40.54 73.8401L44.02 77.16H57.92C60.66 84.5 68.84 88.2 76.16 85.46C81.96 83.28 85.68 77.6 85.32 71.4ZM77.1 75.6401C75.18 75.6401 73.62 74.08 73.62 72.16C73.62 70.24 75.18 68.68 77.1 68.68C79.02 68.68 80.58 70.24 80.58 72.16C80.58 74.08 79.02 75.6401 77.1 75.6401Z" stroke="#2D333A" stroke-width="1.6" stroke-linecap="round" stroke-linejoin="round"/>
<path id="Vector_11" d="M66.12 20.0601L77.94 20.2201C78.28 20.2201 78.54 20.4801 78.54 20.8201C78.54 20.8401 78.54 20.8601 78.54 20.8801L77.42 32.6401" stroke="#2D333A" stroke-width="3.2" stroke-linecap="round" stroke-linejoin="round"/>
<path id="Vector_12" d="M71.74 80.5001C72.4028 80.5001 72.94 79.9628 72.94 79.3001C72.94 78.6374 72.4028 78.1001 71.74 78.1001C71.0773 78.1001 70.54 78.6374 70.54 79.3001C70.54 79.9628 71.0773 80.5001 71.74 80.5001Z" fill="#FF8700"/>
<path id="Vector_13" d="M73.94 81.7001C74.3818 81.7001 74.74 81.3419 74.74 80.9001C74.74 80.4583 74.3818 80.1001 73.94 80.1001C73.4982 80.1001 73.14 80.4583 73.14 80.9001C73.14 81.3419 73.4982 81.7001 73.94 81.7001Z" fill="#2D333A"/>
<path id="Vector_14" d="M45.0599 49.4199C45.4686 49.4199 45.7999 49.0886 45.7999 48.6799C45.7999 48.2713 45.4686 47.9399 45.0599 47.9399C44.6513 47.9399 44.3199 48.2713 44.3199 48.6799C44.3199 49.0886 44.6513 49.4199 45.0599 49.4199Z" fill="#2D333A"/>
<path id="Vector_15" d="M20.52 72.6799C20.9287 72.6799 21.26 72.3486 21.26 71.94C21.26 71.5313 20.9287 71.2 20.52 71.2C20.1113 71.2 19.78 71.5313 19.78 71.94C19.78 72.3486 20.1113 72.6799 20.52 72.6799Z" fill="#FF8700"/>
</g>
</svg>
