<svg width="40" height="40" viewBox="0 0 40 40" fill="none" xmlns="http://www.w3.org/2000/svg">
<path d="M21.744 2.45111L37.5489 18.256C38.5121 19.2192 38.5121 20.7808 37.5489 21.744L21.744 37.5489C20.7808 38.5121 19.2192 38.5121 18.256 37.5489L2.45111 21.744C1.48792 20.7808 1.48792 19.2192 2.45111 18.256L18.256 2.45112C19.2192 1.48793 20.7808 1.48792 21.744 2.45111Z" stroke="white"/>
<path d="M24.0647 19.9944H21.6005V29H18.2402V19.9944H16V16.8917H18.2402V15.0716C18.2402 12.5345 18.9291 11 21.9085 11H24.3895V14.1027H22.8382C21.6845 14.1027 21.6173 14.5395 21.6173 15.3404V16.8917H24.4175L24.0647 19.9944Z" fill="white"/>
</svg>
