<svg width="40" height="40" viewBox="0 0 40 40" fill="none" xmlns="http://www.w3.org/2000/svg">
<g clip-path="url(#clip0_189_504)">
<path d="M21.8804 1.27874L38.7191 18.1174C39.758 19.1563 39.758 20.8408 38.7191 21.8798L21.8804 38.7184C20.8415 39.7574 19.157 39.7574 18.118 38.7184L1.27939 21.8798C0.240432 20.8408 0.240436 19.1563 1.2794 18.1174L18.118 1.27874C19.157 0.239781 20.8415 0.239779 21.8804 1.27874Z" stroke="white"/>
<path d="M20.0028 16.0851C19.2177 16.0795 18.4487 16.3075 17.7935 16.7402C17.1384 17.173 16.6268 17.7907 16.3237 18.515C16.0207 19.2393 15.9399 20.0374 16.0917 20.8077C16.2435 21.5781 16.621 22.2858 17.1762 22.841C17.7314 23.3962 18.4391 23.7737 19.2095 23.9255C19.9798 24.0773 20.7779 23.9965 21.5022 23.6935C22.2265 23.3905 22.8443 22.8788 23.277 22.2237C23.7097 21.5686 23.9377 20.7995 23.9322 20.0144C23.9248 18.9746 23.5084 17.9794 22.7731 17.2441C22.0378 16.5088 21.0427 16.0925 20.0028 16.0851ZM20.0028 22.5925C19.4927 22.5936 18.9937 22.4434 18.569 22.1607C18.1443 21.8781 17.8129 21.4759 17.617 21.0049C17.421 20.5339 17.3691 20.0154 17.4679 19.5149C17.5668 19.0144 17.8119 18.5545 18.1722 18.1934C18.5325 17.8323 18.9919 17.5862 19.4921 17.4863C19.9924 17.3863 20.511 17.437 20.9825 17.632C21.4539 17.827 21.8568 18.1574 22.1404 18.5815C22.4239 19.0056 22.5753 19.5042 22.5753 20.0144C22.5708 20.6942 22.298 21.3448 21.8162 21.8244C21.3344 22.3041 20.6827 22.574 20.0028 22.5755V22.5925Z" fill="white"/>
<path d="M24.0961 14.9199C23.834 14.9222 23.5829 15.0254 23.3951 15.2083C23.2569 15.3474 23.163 15.5242 23.125 15.7166C23.087 15.9089 23.1067 16.1082 23.1816 16.2894C23.2565 16.4706 23.3832 16.6257 23.5459 16.7351C23.7086 16.8445 23.9001 16.9034 24.0961 16.9044C24.3582 16.9021 24.6093 16.7988 24.7972 16.616C24.9826 16.4287 25.0866 16.1757 25.0866 15.9121C25.0866 15.6486 24.9826 15.3956 24.7972 15.2083C24.61 15.0244 24.3584 14.921 24.0961 14.9199Z" fill="white"/>
<path d="M23.4177 12.3701H16.5823C15.4657 12.3716 14.3952 12.8159 13.6056 13.6054C12.8161 14.395 12.3718 15.4655 12.3703 16.5821V23.4344C12.3733 24.5501 12.8182 25.6191 13.6076 26.4075C14.3971 27.1958 15.4667 27.6393 16.5823 27.6408H23.4177C24.5338 27.6408 25.6043 27.1978 26.394 26.4091C27.1838 25.6204 27.6282 24.5505 27.6297 23.4344V16.5821C27.6282 15.4655 27.184 14.395 26.3944 13.6054C25.6048 12.8159 24.5343 12.3716 23.4177 12.3701ZM26.2728 23.4344C26.2713 24.1912 25.97 24.9165 25.4349 25.4517C24.8998 25.9868 24.1744 26.2881 23.4177 26.2896H16.5823C15.8256 26.2881 15.1002 25.9868 14.5651 25.4517C14.03 24.9165 13.7287 24.1912 13.7272 23.4344V16.5821C13.7361 15.8303 14.0407 15.1122 14.575 14.5831C15.1093 14.0541 15.8304 13.7567 16.5823 13.7553H23.4177C23.7913 13.7515 24.1619 13.8219 24.5081 13.9623C24.8544 14.1027 25.1694 14.3103 25.4349 14.5732C25.7004 14.8361 25.9111 15.1489 26.0549 15.4938C26.1988 15.8386 26.2728 16.2085 26.2728 16.5821V23.4344Z" fill="white"/>
</g>
<defs>
<clipPath id="clip0_189_504">
<rect width="40" height="40" fill="white"/>
</clipPath>
</defs>
</svg>
