<svg width="40" height="40" viewBox="0 0 40 40" fill="none" xmlns="http://www.w3.org/2000/svg">
<path d="M21.744 2.45111L37.5489 18.256C38.5121 19.2192 38.5121 20.7808 37.5489 21.744L21.744 37.5489C20.7808 38.5121 19.2192 38.5121 18.256 37.5489L2.45111 21.744C1.48792 20.7808 1.48792 19.2192 2.45111 18.256L18.256 2.45112C19.2192 1.48793 20.7808 1.48792 21.744 2.45111Z" stroke="white"/>
<path d="M25.9979 14.9913C25.9197 15.3809 25.8184 15.9083 25.7079 16.4167C25.0481 19.6253 24.3867 22.8339 23.7238 26.0425C23.6917 26.2277 23.6376 26.408 23.5626 26.5794C23.5337 26.6608 23.4891 26.7353 23.4315 26.7984C23.3738 26.8616 23.3044 26.912 23.2274 26.9466C23.1504 26.9812 23.0673 26.9994 22.9833 27C22.8993 27.0006 22.8161 26.9836 22.7386 26.95C22.5528 26.8834 22.3775 26.789 22.2184 26.6697C21.2194 25.919 20.2342 25.1541 19.2398 24.3986C18.9913 24.2038 18.9682 24.2086 18.7473 24.4319C18.2639 24.907 17.7851 25.4106 17.2925 25.881C17.1618 26.0139 17.0048 26.116 16.8322 26.1803C16.7667 26.2143 16.6942 26.2316 16.6209 26.2309C16.5476 26.2301 16.4755 26.2113 16.4106 26.176C16.3458 26.1406 16.29 26.0898 16.248 26.0278C16.2061 25.9657 16.1791 25.8942 16.1693 25.8192C15.7595 24.5269 15.3498 23.2346 14.9539 21.9375C14.9254 21.8231 14.8676 21.7186 14.7867 21.635C14.7057 21.5514 14.6045 21.4918 14.4935 21.4624C13.5314 21.1678 12.5693 20.8542 11.6117 20.5407C11.4668 20.4924 11.3278 20.427 11.1974 20.3459C11.1447 20.3207 11.0991 20.282 11.065 20.2335C11.0309 20.185 11.0093 20.1283 11.0024 20.0688C10.9955 20.0093 11.0034 19.9489 11.0255 19.8935C11.0475 19.838 11.0829 19.7893 11.1283 19.752C11.3472 19.5557 11.5941 19.3955 11.8603 19.2769C13.0526 18.8017 14.2588 18.3266 15.4603 17.8515L24.87 14.1076L24.9989 14.0601C25.5744 13.8558 26.0348 14.1741 25.9979 14.9913ZM16.5744 25.1113H16.6204C16.6802 24.4081 16.7493 23.6859 16.7999 22.9923C16.8033 22.8711 16.8304 22.7518 16.8794 22.6416C16.9284 22.5314 16.9985 22.4325 17.0854 22.3509C17.7391 21.7522 18.3882 21.1393 19.0419 20.5359L22.5498 17.2719C22.7846 17.0533 23.0102 16.83 23.2496 16.6019C23.2684 16.5812 23.2823 16.5563 23.2903 16.5291C23.2983 16.5019 23.3001 16.4732 23.2956 16.4452C23.2956 16.4452 23.1989 16.3881 23.1621 16.3976C23.002 16.4445 22.8476 16.5098 22.7018 16.5924L17.8035 19.7757L15.6122 21.2011C15.4603 21.2961 15.3774 21.4101 15.4557 21.6049C15.534 21.7997 15.58 21.9898 15.6398 22.1846C15.956 23.1601 16.2675 24.1357 16.5744 25.1113Z" fill="white"/>
</svg>
