<svg width="40" height="40" viewBox="0 0 40 40" fill="none" xmlns="http://www.w3.org/2000/svg">
<path d="M21.744 2.45111L37.5489 18.256C38.5121 19.2192 38.5121 20.7808 37.5489 21.744L21.744 37.5489C20.7808 38.5121 19.2192 38.5121 18.256 37.5489L2.45111 21.744C1.48792 20.7808 1.48792 19.2192 2.45111 18.256L18.256 2.45112C19.2192 1.48793 20.7808 1.48792 21.744 2.45111Z" stroke="white"/>
<path d="M28 18.8935H27.5689C26.791 18.895 26.025 18.7079 25.3406 18.349C24.6561 17.9901 24.0748 17.4709 23.6495 16.8385V23.8299C23.6495 24.8524 23.3372 25.852 22.7521 26.7022C22.167 27.5525 21.3354 28.2151 20.3624 28.6064C19.3895 28.9978 18.3188 29.1001 17.2859 28.9007C16.253 28.7012 15.3043 28.2088 14.5596 27.4857C13.8149 26.7626 13.3078 25.8414 13.1023 24.8385C12.8969 23.8356 13.0023 22.7961 13.4053 21.8513C13.8083 20.9066 14.4908 20.0992 15.3665 19.5311C16.2421 18.963 17.2716 18.6597 18.3248 18.6597C18.4367 18.6597 18.5487 18.6597 18.6551 18.6597V21.2366C18.5457 21.2201 18.4354 21.2092 18.3248 21.204C17.9681 21.204 17.615 21.2722 17.2855 21.4047C16.9561 21.5372 16.6567 21.7315 16.4046 21.9763C16.1524 22.2211 15.9524 22.5118 15.8159 22.8317C15.6794 23.1516 15.6092 23.4945 15.6092 23.8407C15.6092 24.187 15.6794 24.5299 15.8159 24.8498C15.9524 25.1697 16.1524 25.4603 16.4046 25.7052C16.6567 25.95 16.9561 26.1442 17.2855 26.2767C17.615 26.4092 17.9681 26.4775 18.3248 26.4775C19.0521 26.4851 19.754 26.2176 20.2818 25.7315C20.8096 25.2455 21.1218 24.579 21.1523 23.8734L21.1803 12H23.6887C23.8017 13.0588 24.2952 14.0451 25.0826 14.7858C25.87 15.5264 26.9009 15.9741 27.9944 16.0502V18.8826" fill="white"/>
</svg>
