<svg width="40" height="40" viewBox="0 0 40 40" fill="none" xmlns="http://www.w3.org/2000/svg">
<path d="M21.744 2.45111L37.5489 18.256C38.5121 19.2192 38.5121 20.7808 37.5489 21.744L21.744 37.5489C20.7808 38.5121 19.2192 38.5121 18.256 37.5489L2.45111 21.744C1.48792 20.7808 1.48792 19.2192 2.45111 18.256L18.256 2.45112C19.2192 1.48793 20.7808 1.48792 21.744 2.45111Z" stroke="white"/>
<path d="M20.4456 25C18.8589 24.9342 17.6335 24.8947 16.4119 24.8333C16.0698 24.8243 15.7298 24.7684 15.3987 24.6667C15.0701 24.5761 14.7738 24.3667 14.5514 24.0678C14.329 23.7689 14.1915 23.3956 14.1584 23.0001C13.9891 21.3998 13.9554 19.7837 14.0579 18.1757C14.0802 17.7371 14.1473 17.2722 14.1882 16.8204C14.2568 16.3963 14.4414 16.0103 14.7138 15.7213C14.9862 15.4322 15.3314 15.256 15.6967 15.2196C17.2784 15.037 18.868 14.9682 20.4568 15.0135C21.537 15.0135 22.6171 15.0749 23.6935 15.1275C24.035 15.142 24.3749 15.1874 24.7104 15.2635C25.049 15.3179 25.3624 15.5043 25.6007 15.7928C25.839 16.0813 25.9884 16.4554 26.0252 16.8555C26.192 18.0392 26.2531 19.2401 26.2077 20.4388C26.1816 21.3159 26.1183 22.2238 26.0177 23.1097C25.9766 23.5456 25.8033 23.9493 25.5295 24.2466C25.2558 24.5439 24.9001 24.7149 24.5279 24.7281C23.0604 24.8509 21.5705 24.9254 20.4456 25ZM18.9558 17.7678V22.1931L22.0137 20.0002L18.9558 17.7678Z" fill="white"/>
</svg>
