<svg width="177" height="100" viewBox="0 0 177 100" fill="none" xmlns="http://www.w3.org/2000/svg">
<g clip-path="url(#clip0_56_136)">
<path d="M20.845 22.2497L19.1436 10.5467C18.8133 8.23675 18.6346 6.76641 18.5141 5.56599H18.4546C18.2447 6.52633 17.9158 7.78641 17.4621 9.22692L13.1193 22.2497H10.1843L6.08111 10.0978C5.5721 8.56633 5.03332 6.88574 4.79371 5.56599H4.76393C4.64341 7.21675 4.43357 8.83341 4.1968 10.8223L2.82008 22.2554H0L2.9647 2.00024H6.34482L10.5983 14.7545C11.0657 16.0677 11.4446 17.4109 11.7326 18.7749H11.7936C12.0731 17.4752 12.4329 16.1941 12.8711 14.9392L17.2664 2.01161H20.6806L23.736 22.2668L20.845 22.2497Z" fill="white"/>
<path d="M40.1007 22.2498L38.4234 17.5063H29.8285L28.1512 22.2498H25.3353L32.7081 1.99463H35.7635L43.1902 22.2498H40.1007ZM35.039 8.08623C34.6647 7.09943 34.3624 6.08671 34.1344 5.05605H34.0749C33.8303 6.09473 33.5201 7.11679 33.1462 8.11606L30.5473 15.3186H37.679L35.039 8.08623Z" fill="white"/>
<path d="M51.1201 22.3703C49.0841 22.3703 47.4961 22.2496 45.9989 22.2496V2.02143C47.5585 1.9916 49.8271 1.9021 52.0488 1.9021C58.5184 1.9021 62.3806 4.93227 62.3806 11.8947C62.3806 18.8287 57.7386 22.3703 51.1201 22.3703ZM51.7794 4.15235C50.7316 4.15235 49.5038 4.21202 48.7538 4.24328V19.8502C49.6371 19.9711 50.5277 20.0309 51.4193 20.0292C56.152 20.0292 59.4754 17.5687 59.4754 12.0737C59.4754 6.91545 57.0198 4.15235 51.7794 4.15235Z" fill="white"/>
<path d="M66.3037 22.2498V1.99463H76.695V4.27614H69.0586V10.6973H76.3363V12.9177H69.0586V19.9398H76.695V22.2498H66.3037Z" fill="white"/>
<path d="M87.8351 22.2498V1.99463H90.5899V22.2498H87.8351Z" fill="white"/>
<path d="M108.738 22.2498L101.041 9.70715C100.195 8.3507 99.4257 6.94829 98.7354 5.50639C98.8545 7.66715 98.9452 12.5285 98.9452 15.7348V22.2455H96.2513V1.99463H99.8753L107.39 14.148C108.289 15.6183 109.128 17.1483 109.877 18.5888C109.756 16.0985 109.667 11.1178 109.667 7.75665V1.99463H112.332V22.2498H108.738Z" fill="white"/>
<path d="M0.348816 96.6345V25.9688H41.6192V42.509H19.7845V52.4533H40.4708V68.3642H19.7831V79.7746H41.6178V96.6345H0.348816Z" fill="white"/>
<path d="M82.375 98.0963C59.7024 98.0963 53.7474 86.058 53.7474 71.0875V25.9688H73.1803V70.1499C73.1803 77.6863 75.4786 81.7691 83.5234 81.7691C91.3598 81.7691 93.8736 78.4193 93.8736 69.6257V25.9688H113.097V68.5744C113.091 89.0938 101.285 98.0963 82.375 98.0963Z" fill="white"/>
<path d="M127.444 0L129.372 5.97369H135.625L130.559 9.65451L132.488 15.6126L127.444 11.9431L122.364 15.6126L124.31 9.65451L119.247 5.97369H125.498L127.444 0Z" fill="#D7D7D7"/>
<path d="M127.444 84.3875L129.372 90.354H135.625L130.559 94.0306L132.488 100L127.444 96.3121L122.364 100L124.31 94.0306L119.247 90.354H125.498L127.444 84.3875Z" fill="#D7D7D7"/>
<path d="M147.624 6.41846L149.551 12.3893H155.82L150.742 16.0659L152.69 22.0424L147.624 18.3587L142.562 22.0424L144.51 16.0659L139.429 12.3893H145.697L147.624 6.41846Z" fill="#D7D7D7"/>
<path d="M163.399 21.2227L165.327 27.1921H171.577L166.515 30.8757L168.442 36.8381L163.399 33.1615L158.319 36.8381L160.262 30.8757L155.184 27.1921H161.453L163.399 21.2227Z" fill="#D7D7D7"/>
<path d="M168.803 41.9465L170.733 47.9131H177L171.921 51.5968L173.868 57.5563L168.803 53.8641L163.742 57.5563L165.673 51.5968L160.608 47.9131H166.857L168.803 41.9465Z" fill="#D7D7D7"/>
<path d="M163.399 63.1763L165.327 69.1315H171.577L166.515 72.808L168.442 78.7817L163.399 75.0981L158.319 78.7817L160.262 72.808L155.184 69.1315H161.453L163.399 63.1763Z" fill="#D7D7D7"/>
<path d="M148.106 78.4622L150.053 84.4202H156.304L151.258 88.1152L153.187 94.0747L148.106 90.3897L143.063 94.0747L144.989 88.1152L139.926 84.4202H146.178L148.106 78.4622Z" fill="#D7D7D7"/>
</g>
<defs>
<clipPath id="clip0_56_136">
<rect width="177" height="100" fill="white"/>
</clipPath>
</defs>
</svg>
