<svg width="161" height="100" viewBox="0 0 161 100" fill="none" xmlns="http://www.w3.org/2000/svg">
<path d="M158.449 48.4392L158.148 46.9025L158.358 46.1492V40.7256L155.387 39.5324L155.062 36.0974L153.64 34.9464L153.646 34.9343L153.64 34.9283L153.646 34.8017V33.476L152.724 33.3012L152.73 33.1987V31.6138L149.801 29.577L148.24 29.2576L146.788 29.7517L143.166 28.9924L142.063 29.5167L136.875 27.2749L133.006 27.5401L131.626 28.0162L132.825 27.287V21.8633L132.367 21.0196L129.047 20.6701L127.588 20.7545L126.757 18.5609L126.763 18.5489H126.757L126.745 18.5187L126.763 18.4163V16.5602L126.377 16.4999L126.383 16.4939L126.365 16.4879L126.383 16.3613V11.468L124.214 9.92527L124.147 7.21948L121.628 6.17091L120.815 5.06207L117.434 1.77775L114.053 0L113.704 0.379655L111.649 1.33783V6.76148L111.727 6.93624V7.02061L111.715 7.02664L111.727 7.06882V7.15319L111.715 7.15921L111.727 7.2014V7.26166L109.214 6.55056L107.147 5.35736L105.297 6.55056V10.7207L103.308 10.5098L101.705 11.4379V14.3666L100.663 14.0894L99.6505 12.4021L97.3304 11.468L93.6664 11.9079L92.2683 13.2458L90.9546 14.0593V13.9448V13.9267V13.8122V13.7941V13.6796V13.6616V13.5471V13.529V13.4145V13.3964V13.2819V13.2638V13.1493V13.1313V13.0168V12.9987V12.8842V12.8661V12.7516V12.7335V12.625V12.619V12.6009V12.4925V12.4864L90.593 10.6545L89.0864 10.2447L87.4834 11.1787L86.923 12.3539L86.917 12.2996V8.99723L85.9467 6.40593L83.7351 5.88164L76.8832 3.49524L74.1774 4.48355L73.3819 6.2854V9.68422L73.3518 9.69628L71.8452 9.75051L70.4411 10.3953L67.4762 10.9437L65.3248 12.1972L62.5105 11.9622L60.9919 9.87104L58.491 10.3833L57.7257 10.54L56.6289 11.5885V15.4936L55.044 16.1866L52.3804 15.8672L51.6391 17.8739L49.0177 17.3496L46.5469 15.1681L42.5154 13.7098L38.7489 14.1497L35.3863 14.2341L32.8311 16.5361L28.3175 18.2235L25.0573 19.3022L22.6528 19.7662L21.0076 22.8818L19.5553 23.6109L18.9647 25.7021L14.4992 26.6663V29.4082V31.1378L13.071 32.4575V33.9641L9.62396 35.8081V38.4958L8.98518 38.8634V44.2871L9.45522 46.4686L12.1188 47.258L14.2883 48.5055L15.3489 49.7589L18.2174 50.6629L18.5368 51.0968L17.898 51.0908L13.1313 52.284L11.4318 53.2723L8.31626 53.1578L3.19393 54.6704L0.192841 56.647V60.2808L0.0602627 60.5219L0 60.4978V65.9214L1.47644 67.3979L4.79691 68.0427L6.86995 70.3387L9.0816 70.0494L10.2326 69.0852L12.2032 69.6758L12.2092 69.7361V71.8513L13.3181 72.9601L15.6322 73.0746L17.2472 74.0629L18.4223 77.3533L18.8984 78.5525L19.5372 78.8659L21.5982 79.3058L24.5149 80.1796L24.5269 82.102L26.9013 84.3437L28.6128 84.2835L29.8602 83.265L33.5905 84.8921L36.465 87.1339L37.1821 88.767L39.8518 89.7252L41.1655 91.1836L43.7327 92.202L49.9699 93.0758L52.1875 94.0641L54.3088 96.1613L57.7799 97.2942L59.1057 99.7409L61.1667 100L62.9143 98.5778V95.191L69.7782 94.8777L73.858 95.7816L77.522 95.3417L79.4866 96.4807L81.5897 95.0826L84.0243 94.1666L84.1509 94.1244L84.3678 88.2729L84.3618 88.2608L84.3678 88.1403L84.3618 88.1282L84.3678 88.0077L84.3618 87.9957L84.3678 87.8751L84.3618 87.8631L84.3678 87.7426L84.3618 87.7305L84.3678 87.61L84.3618 87.5979L84.3678 87.4774L84.3618 87.4653L84.3678 87.3448L84.3618 87.3328L84.3678 87.2122L84.3618 87.2002L84.3678 87.0797L84.3618 87.0676L84.3678 86.9471L84.3618 86.935L84.3678 86.8145L84.3618 86.8025L84.3678 86.6819L84.3618 86.6699L84.3678 86.5494L84.3618 86.5373L84.3678 86.4168L84.3618 86.4047L84.3678 86.2842L84.3618 86.2782L84.3678 86.1516L84.3618 86.1456L84.3678 86.019L84.3618 86.013L84.3678 85.8925L84.3618 85.8804L84.3678 85.7599L84.3618 85.7479L84.3678 85.6273L84.3618 85.6153L84.3678 85.4948L84.3618 85.4827L84.3678 85.3622L84.3618 85.3501L84.3678 85.2296L84.3618 85.2176L84.3678 85.097L84.3618 85.085L84.3678 84.9644L84.3618 84.9524L84.3678 84.8319L84.3618 84.8198L84.3678 84.6993L84.3618 84.6872L84.3678 84.5667L84.3618 84.5547L84.3678 84.4341L84.3618 84.4221L84.3678 84.3016L84.3618 84.2895L84.3678 84.169L84.3618 84.1569L84.3678 84.0364L84.3618 84.0243L84.3678 83.9038L84.3618 83.8978L84.3678 83.7712L84.3618 83.7652L84.3678 83.6387L84.3618 83.6326L84.3678 83.5061L84.3618 83.5001L84.3678 83.3735L84.3618 83.3675L84.3678 83.2409L84.3618 83.2349L84.3678 83.1084L84.3618 83.1023L84.3678 82.9818L84.3618 82.9697L84.3678 82.8492L83.3976 80.6074L82.4394 78.1849L84.5064 77.1484L85.2176 74.6414L85.543 73.5085V69.6035L85.5671 69.5794L87.381 69.7541L87.6883 70.9775L88.8032 72.6648L96.8483 73.0746L99.1141 74.2075L104.038 74.1533L106.81 75.6358L109.973 75.3164L114.108 77.6425L115.524 78.9261L118.694 79.4203L120.694 78.2572L123.725 80.9329L126.293 81.3125L127.257 82.795L128.36 82.6805L130.065 82.5057L135.826 78.9261L136.067 77.0941V74.3883L137.646 71.7368L140.557 71.1522L141.852 69.1756L143.504 68.2114L143.847 65.9696L144.835 65.5719L146.505 64.8969L146.499 64.7644H146.505L146.499 64.6318H146.505L146.499 64.4992H146.505L146.499 64.3666H146.505L146.499 64.2341H146.505L146.499 64.1015H146.505L146.499 63.9689H146.505L146.499 63.8363H146.505L146.499 63.7037H146.505L146.499 63.5712H146.505L146.499 63.4386H146.505L146.499 63.306H146.505L146.499 63.1734H146.505L146.499 63.0409H146.505L146.499 62.9143L146.505 62.9083L146.499 62.7817L146.505 62.7757L146.499 62.6492L146.505 62.6431L146.499 62.5166H146.505L146.499 62.384H146.505L146.499 62.2514H146.505L146.499 62.1188H146.505L146.499 61.9863H146.505L146.499 61.8537H146.505L146.499 61.7211H146.505L146.499 61.5885H146.505L146.499 61.456H146.505L146.499 61.3234H146.505L146.499 61.1908H146.505L146.499 61.0582H146.505L146.499 60.9256H146.505L146.499 60.7931H146.505L146.499 60.6605H146.505L146.499 60.5279H146.505L146.499 60.5158L147.981 59.6541L153.013 60.7027L157.069 58.7501L160.769 55.0862V49.6625L158.449 48.4392Z" fill="#D7D7D7"/>
<path d="M158.449 48.4392L158.142 46.8663L155.876 45.8479L155.207 43.6061L157.816 42.6721L158.358 40.7256L155.387 39.5324L155.062 36.0974L153.296 34.6692L153.646 33.476L151.983 33.1566L149.012 31.7283L144.884 31.204L144.829 30.1856L147.24 30.2459L147.397 30.6798L149.253 30.6557L152.73 31.6138L149.801 29.577L148.24 29.2576L146.788 29.7517L143.166 28.9924L142.063 29.5167L136.875 27.2749L133.006 27.5401L130.999 28.2391L128.227 26.8712L128.673 25.6719L126.654 24.2799L125.093 23.9002L122.767 21.6283L126.293 22.0923L127.6 23.0867L130.969 22.9963L132.825 21.8633L132.367 21.0196L129.047 20.6701L127.588 20.7545L126.467 17.7835L126.763 16.5602L124.901 16.2408L123.093 16.5903L119.923 16.2167L121.074 14.674L119.603 13.2458L120.206 12.1369L122.514 12.1972L126.383 11.468L124.214 9.92527L124.147 7.21948L121.628 6.17091L120.815 5.06207L117.434 1.77775L114.053 0L113.704 0.379655L111.649 1.33783L112.312 2.88056L113.523 3.69411L111.715 4.51368L112.185 7.39424L109.214 6.55056L107.147 5.35736L105.297 6.55056L108.268 7.27974L105.61 8.82247L106.629 10.8593L103.308 10.5098L101.705 11.4379L102.417 12.9565L105.291 14.7885L105.466 19.1274L108.606 23.2012L104.212 19.5613L104.236 15.0476L100.663 14.0894L99.6505 12.4021L97.3304 11.468L93.6664 11.9079L92.2683 13.2458L89.1648 15.1681L88.1162 17.0604L88.2006 13.8544L90.9546 12.4864L90.593 10.6545L89.0864 10.2447L87.4834 11.1787L86.6398 12.9565L84.2775 12.9264L84.3618 10.4797L86.917 8.99723L85.9467 6.40593L83.7351 5.88164L76.8832 3.49524L74.1774 4.48355L73.3819 6.2854L75.6539 8.06316L73.9544 9.46125L73.3518 9.69628L71.8452 9.75051L70.4411 10.3953L67.4762 10.9437L65.3248 12.1972L62.5105 11.9622L60.9919 9.87104L58.3825 10.4014L57.7257 10.54L56.6289 11.5885L59.7505 13.2759L59.9132 14.5836L57.8522 14.9632L55.044 16.1866L52.3804 15.8672L51.6391 17.8739L49.0177 17.3496L46.5469 15.1681L42.5154 13.7098L38.7489 14.1497L35.3863 14.2341L32.8311 16.5361L28.3175 18.2235L25.0573 19.3022L22.6528 19.7662L21.0076 22.8818L19.5553 23.6109L18.9647 25.7021L14.4992 26.6663L15.3007 27.1303L15.0657 29.4082L14.9211 30.74L13.071 32.4575L13.3301 33.8255L9.62396 35.8081L10.3411 38.074L8.98518 38.8634L9.45522 41.045L12.1188 41.8344L14.2883 43.0818L15.3489 44.3353L18.2174 45.2392L19.9409 47.6256L22.2611 48.9635L23.1771 51.1751L17.898 51.0908L13.1313 52.284L11.4318 53.2723L8.31626 53.1578L3.19393 54.6704L0.192841 56.647L1.10883 58.5694L0.0602627 60.5219L0 60.4978L1.47644 61.9742L4.79691 62.619L6.86995 64.915L9.0816 64.6258L10.2326 63.6616L13.5531 64.6559L12.2092 66.4276L13.3181 67.5365L15.6322 67.651L17.2472 68.6393L18.4223 71.9296L18.8984 73.1288L19.5372 73.4422L21.5982 73.8821L24.5149 74.7559L24.5269 76.6783L26.9013 78.9201L28.6128 78.8598L29.8602 77.8414L33.5905 79.4685L36.465 81.7103L37.1821 83.3434L39.8518 84.3016L41.1655 85.7599L43.7327 86.7784L49.9699 87.6522L52.1875 88.6405L54.3088 90.7376L57.7799 91.8706L59.1057 94.3172L61.1667 94.5764L62.9143 93.1542L61.245 90.6171L62.6974 89.7734L69.7782 89.454L73.858 90.358L77.522 89.918L79.4866 91.057L81.5897 89.6589L84.0243 88.7429L84.1509 88.7007L84.3678 82.8492L83.3976 80.6074L81.8187 76.6181L80.6014 74.5209L81.6018 73.1831L84.5064 71.7247L85.0488 69.8144L85.543 68.0849L84.0665 65.2043L85.5671 64.1557L87.381 64.3305L87.6883 65.5538L88.8032 67.2412L96.8483 67.651L99.1141 68.7839L104.038 68.7297L106.81 70.2121L109.973 69.8927L114.108 72.2189L115.524 73.5025L118.694 73.9966L120.694 72.8336L123.725 75.5092L126.293 75.8889L127.257 77.3713L128.36 77.2568L130.065 77.0821L135.826 73.5025L136.067 71.6705L135.308 70.2423L137.646 66.3131L140.557 65.7286L141.852 63.752L143.504 62.7878L143.847 60.546L144.667 60.2145L146.505 59.4733L146.426 55.1344L147.981 54.2304L153.013 55.279L157.069 53.3265L160.769 49.6625L158.449 48.4392Z" fill="white"/>
</svg>
